<?xml version="1.0" standalone="no"?>
<!DOCTYPE svg PUBLIC "-//W3C//DTD SVG 1.1//EN" "http://www.w3.org/Graphics/SVG/1.1/DTD/svg11.dtd" >
<svg xmlns="http://www.w3.org/2000/svg" xmlns:xlink="http://www.w3.org/1999/xlink" version="1.1">
<metadata></metadata>
<defs>
<font id="hp_simplified_w01_lightRg" horiz-adv-x="1097" >
<font-face units-per-em="2048" ascent="1665" descent="-383" />
<missing-glyph horiz-adv-x="430" />
<glyph horiz-adv-x="0" />
<glyph unicode="&#xd;" horiz-adv-x="0" />
<glyph horiz-adv-x="0" />
<glyph horiz-adv-x="0" />
<glyph horiz-adv-x="0" />
<glyph unicode="&#x9;" horiz-adv-x="0" />
<glyph unicode="&#xa;" horiz-adv-x="0" />
<glyph unicode=" "  horiz-adv-x="430" />
<glyph unicode="&#x09;" horiz-adv-x="430" />
<glyph unicode="&#xa0;" horiz-adv-x="430" />
<glyph unicode="!" horiz-adv-x="481" d="M143 86q0 53 23.5 74.5t73.5 21.5q51 0 74.5 -21.5t23.5 -74.5t-23.5 -73.5t-74.5 -20.5q-53 0 -75 20.5t-22 73.5zM182 932v487h86q31 0 31 -30v-457q0 -139 -2 -263t-12 -268h-60q-31 0 -30 31q-10 123 -11.5 251t-1.5 249z" />
<glyph unicode="&#x22;" horiz-adv-x="630" d="M113 1419h98q31 0 31 -30q-2 -106 -7.5 -201.5t-13.5 -183.5h-61q-27 0 -31 30q-6 86 -10 172t-6 213zM389 1419h98q31 0 31 -30q-2 -106 -7.5 -201.5t-13.5 -183.5h-61q-27 0 -31 30q-6 86 -10 172t-6 213z" />
<glyph unicode="#" horiz-adv-x="1169" d="M113 418v71h170l43 418h-183q-31 0 -30 31v72h223l37 358h78q31 0 30 -31l-35 -327h340l37 358h78q31 0 31 -31l-35 -327h129q31 0 31 -31v-72h-170l-43 -418h182q31 0 31 -30v-72h-223l-39 -387h-78q-31 0 -31 31l37 356h-340l-39 -387h-78q-31 0 -30 31l36 356h-129 q-31 0 -30 31zM393 489h340l43 418h-340z" />
<glyph unicode="$" d="M143 1038q0 156 97.5 250t310.5 94l14 191h66q31 0 28 -25l-14 -168q72 -4 132.5 -12t99.5 -22q27 -10 26 -39v-56q-59 10 -128.5 19.5t-135.5 11.5l-41 -528q76 -23 141.5 -48.5t113.5 -66.5t75.5 -104.5t27.5 -159.5q0 -102 -30.5 -173t-86 -115t-132 -64.5 t-168.5 -20.5l-17 -203h-65q-31 0 -29 25l14 180q-80 6 -153.5 17.5t-106.5 27.5q-27 10 -26 39v59q43 -10 119.5 -23t175.5 -18l43 562q-70 23 -133.5 48t-111.5 66t-77 102.5t-29 153.5zM260 1038q0 -55 13.5 -94t42 -67.5t75.5 -51t113 -43.5l39 500 q-158 -4 -220.5 -67.5t-62.5 -176.5zM547 104q86 2 142 21.5t90 55.5t47.5 85.5t13.5 110.5q0 57 -12.5 97t-42 68.5t-78 51t-119.5 45.5z" />
<glyph unicode="%" horiz-adv-x="1540" d="M88 1022q0 104 20.5 177t57.5 119t87 66.5t112 20.5q61 0 111 -20.5t87 -66.5t57.5 -119t20.5 -177t-20.5 -177t-57.5 -119t-87 -66.5t-111 -20.5t-111.5 20.5t-87.5 66.5t-57.5 119t-20.5 177zM190 1022q0 -141 36.5 -216t138.5 -75t138 75t36 216t-36 216t-138 75 t-138.5 -75t-36.5 -216zM309 27q0 12 9 26l817 1333h65q31 0 31 -26q0 -12 -8 -27l-817 -1333h-66q-31 0 -31 27zM899 369q0 104 20.5 177t57.5 119t87 66.5t112 20.5q61 0 111 -20.5t87 -66.5t57.5 -119t20.5 -177t-20.5 -177t-57.5 -119t-87 -66.5t-111 -20.5t-111.5 20.5 t-87.5 66.5t-57.5 119t-20.5 177zM1001 369q0 -141 36.5 -216t138.5 -75t138 75t36 216t-36 216t-138 75t-138.5 -75t-36.5 -216z" />
<glyph unicode="&#x26;" horiz-adv-x="1286" d="M102 342q0 78 19.5 136.5t59.5 106.5t99.5 89t141.5 84q-51 49 -88 92t-60.5 86t-35 89t-11.5 101t17.5 111.5t58.5 100.5t106.5 72t161.5 28q94 0 160 -24.5t106 -66.5t57 -96.5t17 -113.5q0 -68 -18.5 -121t-56 -99.5t-96 -87.5t-140.5 -84q111 -96 199 -183t170 -183 q41 80 68.5 167t43.5 179h74q16 0 22.5 -7t6.5 -18q0 -14 -6 -38q-25 -96 -58 -190.5t-80 -174.5q66 -90 114 -170t71 -127h-111q-16 0 -27 18q-29 55 -54 96.5t-58 88.5q-80 -104 -190.5 -166t-270.5 -62q-115 0 -192.5 31t-127 82t-71 116.5t-21.5 137.5zM219 348 q0 -76 25.5 -127t68.5 -83t99.5 -46t117.5 -14q129 0 220.5 54t158.5 147q-90 113 -188 209t-223 204q-72 -37 -125.5 -71.5t-87 -72.5t-50 -86t-16.5 -114zM340 1126q0 -49 9 -85.5t30.5 -72.5t56.5 -73t88 -86q74 39 126 74t86 71.5t50.5 80.5t16.5 102q0 100 -59.5 151 t-170.5 51q-49 0 -91 -11t-73.5 -36.5t-50 -67t-18.5 -98.5z" />
<glyph unicode="'" horiz-adv-x="354" d="M113 1419h98q31 0 31 -30q-2 -106 -7.5 -201.5t-13.5 -183.5h-61q-27 0 -31 30q-6 86 -10 172t-6 213z" />
<glyph unicode="(" horiz-adv-x="571" d="M145 702q0 121 14.5 233t46.5 218.5t83 210.5t123 209h55q33 0 33 -25q0 -8 -6 -20q-59 -111 -101.5 -207t-70 -191.5t-40 -199t-12.5 -228.5t13.5 -229t42 -205.5t76 -206t114.5 -229.5h-70q-20 0 -30 6t-21 21q-133 193 -191.5 398.5t-58.5 444.5z" />
<glyph unicode=")" horiz-adv-x="571" d="M55 1573h70q20 0 30.5 -6t20.5 -21q133 -193 191.5 -398.5t58.5 -445.5q0 -121 -14.5 -232.5t-46 -218t-83 -210.5t-122.5 -209h-56q-33 0 -32 25q0 8 6 20q59 111 101 207t69.5 191.5t40 199t12.5 227.5q0 125 -13.5 229.5t-42 206t-75.5 206t-115 229.5z" />
<glyph unicode="*" horiz-adv-x="808" d="M61 1130l25 76q8 23 22.5 21t34.5 -10l228 -93l-19 295h80q23 0 26 -14t1 -37l-17 -244l275 109l24 -76q6 -20 -5 -27.5t-34 -13.5l-237 -59l186 -228l-63 -47q-16 -12 -28.5 -1.5t-24.5 28.5l-129 205l-160 -250l-64 47q-16 12 -10 27.5t21 31.5l155 187z" />
<glyph unicode="+" d="M154 686v68h344v366h73q31 0 31 -30v-336h313q31 0 31 -31v-68h-344v-366h-74q-31 0 -30 30v336h-314q-31 0 -30 31z" />
<glyph unicode="," horiz-adv-x="456" d="M131 86q0 53 23.5 74.5t72.5 21.5q51 0 75 -21.5t24 -74.5q0 -35 -11.5 -70.5t-25.5 -70.5l-78 -195h-55q-23 0 -23 21q0 10 4 22l66 203q-35 4 -53.5 25.5t-18.5 64.5z" />
<glyph unicode="-" horiz-adv-x="784" d="M98 539v71h557q31 0 31 -30v-72h-557q-31 0 -31 31z" />
<glyph unicode="." horiz-adv-x="456" d="M131 86q0 53 23.5 74.5t72.5 21.5q51 0 75 -21.5t24 -74.5t-23.5 -73.5t-75.5 -20.5q-53 0 -74.5 20.5t-21.5 73.5z" />
<glyph unicode="/" horiz-adv-x="706" d="M70 -125l465 1698h73q41 0 29 -45l-465 -1698h-74q-41 0 -28 45z" />
<glyph unicode="0" d="M106 702q0 209 30 347.5t86.5 220.5t139.5 115.5t187 33.5q106 0 188 -33.5t138.5 -115.5t86 -220.5t29.5 -347.5t-28.5 -348t-85 -222t-139.5 -116.5t-189 -33.5q-109 0 -191 33.5t-138 116.5t-85 222.5t-29 347.5zM231 702q0 -156 13.5 -271.5t49.5 -191t97.5 -112.5 t157.5 -37t157.5 37t97.5 112.5t49 191.5t13 271q0 156 -13 270.5t-49 189.5t-97.5 112t-157.5 37t-157.5 -37t-97.5 -112t-49.5 -189.5t-13.5 -270.5z" />
<glyph unicode="1" d="M184 1176v57l105 47q98 45 158.5 71.5t96.5 42t53 20.5t30 5q35 0 35 -30v-1389h-89q-31 0 -30 31v1249l-295 -125q-20 -10 -35 -10q-29 0 -29 31z" />
<glyph unicode="2" d="M152 31v69q0 104 25.5 189.5t71.5 156t110.5 131t142.5 115.5q76 53 134 96t97 86.5t58.5 90.5t19.5 108q0 51 -14.5 95t-50 77t-96 50.5t-152.5 17.5q-111 0 -188 -17.5t-107 -17.5q-20 0 -25.5 10t-5.5 23v53q66 23 154 39t198 16q205 0 306.5 -91t101.5 -251 q0 -78 -23.5 -136t-64.5 -107.5t-97.5 -92.5t-121.5 -92q-61 -45 -125 -97t-114 -116.5t-83 -145.5t-35 -184h635q31 0 31 -30v-76h-752q-31 0 -30 31z" />
<glyph unicode="3" d="M113 63v60q57 -10 142 -21.5t177 -11.5q100 0 167 21.5t108 61.5t58 96.5t17 123.5q0 84 -22.5 137.5t-65.5 84t-103.5 42t-135.5 11.5h-95q-31 0 -30 30v76h125q92 0 150.5 27.5t90 69.5t44 92.5t12.5 97.5q0 117 -69 184.5t-237 67.5q-109 0 -182.5 -16.5t-101.5 -16.5 q-20 0 -25.5 10t-5.5 23v53q61 23 146 38t194 15q203 0 301 -99t98 -259q0 -119 -51 -199t-147 -127q115 -39 174 -118.5t59 -221.5q0 -213 -124 -313t-337 -100q-23 0 -62.5 3t-85.5 7t-88 11t-67 17q-29 10 -28 43z" />
<glyph unicode="4" d="M92 389v72q29 106 82 230t131 249t177.5 240.5t219.5 205.5h105q31 0 31 -30v-893h116q31 0 31 -31v-74h-147v-358h-86q-31 0 -31 31v327h-598q-31 0 -31 31zM203 463h518v807q-102 -82 -187 -184.5t-150 -210t-111 -215t-70 -197.5z" />
<glyph unicode="5" d="M156 63v60q51 -10 137 -21.5t176 -11.5q195 0 272.5 82t77.5 240q0 90 -23.5 148t-68.5 93t-109.5 48.5t-146.5 13.5h-246q-31 0 -30 30l41 641h630q31 0 31 -30v-76h-561l-29 -459h174q129 0 218 -30.5t142.5 -84t77 -127t23.5 -161.5q0 -131 -39 -215t-102.5 -133.5 t-141 -68.5t-155.5 -19q-31 0 -76 3t-91 7t-87 11t-66 17q-29 10 -28 43z" />
<glyph unicode="6" d="M129 678q0 389 116.5 564t356.5 175q33 0 71 -2t76.5 -6t73.5 -11t60 -16q29 -10 28 -43v-57q-53 10 -124.5 19.5t-163.5 9.5q-90 0 -158 -28t-114 -93.5t-70.5 -172t-26.5 -261.5q55 37 135 66.5t197 29.5q199 0 301 -102.5t102 -319.5q0 -98 -23.5 -181t-73.5 -142.5 t-128 -92t-186 -32.5q-131 0 -217.5 48t-137.5 138t-72.5 219t-21.5 291zM254 590q0 -121 16.5 -213t54 -156.5t100 -97.5t155.5 -33q147 0 216.5 86t69.5 256q0 66 -12 123t-44 99t-87 66.5t-141 24.5q-92 0 -176 -26.5t-152 -73.5v-55z" />
<glyph unicode="7" d="M115 1311v75h778q18 0 29.5 -6t11.5 -28v-60q-90 -166 -167 -338t-139.5 -338.5t-108.5 -323.5t-75 -292h-82q-31 0 -30 31q0 39 22 125q37 135 91.5 288.5t116 304t125 289t116.5 242.5h-658q-31 0 -30 31z" />
<glyph unicode="8" d="M106 377q0 133 52.5 219t169.5 133q-92 43 -134 131t-42 187q0 180 99 276t298 96t298 -96t99 -276q0 -98 -42 -186.5t-134 -131.5q117 -47 169 -133t52 -219q0 -199 -117.5 -297t-324.5 -98t-325 98t-118 297zM227 377q0 -156 87.5 -222.5t234.5 -66.5t234 66.5 t87 222.5q0 55 -12 109.5t-47 95.5t-98.5 66.5t-163.5 25.5q-102 0 -164.5 -25.5t-97.5 -66.5t-47.5 -95.5t-12.5 -109.5zM270 1053q0 -47 7.5 -95.5t35 -88.5t84 -65.5t152.5 -25.5t152.5 25.5t84 65.5t34.5 88.5t7 95.5q0 262 -278 262q-279 0 -279 -262z" />
<glyph unicode="9" d="M111 979q0 96 23.5 177t73.5 139.5t128 91t184 32.5q131 0 217 -47t137.5 -136t73 -216t21.5 -289q0 -197 -25.5 -339t-83 -232t-150 -133t-225.5 -43q-33 0 -71.5 3t-76.5 7t-74 11t-60 18q-29 10 -29 43v57q53 -10 133 -21.5t172 -11.5q88 0 155.5 26.5t114 92 t70 176.5t25.5 277q-53 -35 -133 -66t-195 -31q-199 0 -302 102.5t-103 311.5zM233 987q0 -72 12.5 -130t45.5 -99t91 -63.5t148 -22.5q72 0 160 26.5t154 73.5v39q0 240 -71 370t-249 130q-147 0 -219 -84t-72 -240z" />
<glyph unicode=":" horiz-adv-x="456" d="M131 86q0 53 23.5 74.5t72.5 21.5q51 0 75 -21.5t24 -74.5t-23.5 -73.5t-75.5 -20.5q-53 0 -74.5 20.5t-21.5 73.5zM131 934q0 53 23.5 74.5t72.5 21.5q51 0 75 -21.5t24 -74.5t-23.5 -73.5t-75.5 -20.5q-53 0 -74.5 20.5t-21.5 73.5z" />
<glyph unicode=";" horiz-adv-x="456" d="M131 86q0 53 23.5 74.5t72.5 21.5q51 0 75 -21.5t24 -74.5q0 -35 -11.5 -70.5t-25.5 -70.5l-78 -195h-55q-23 0 -23 21q0 10 4 22l66 203q-35 4 -53.5 25.5t-18.5 64.5zM131 934q0 53 23.5 74.5t72.5 21.5q51 0 75 -21.5t24 -74.5t-23.5 -73.5t-75.5 -20.5 q-53 0 -74.5 20.5t-21.5 73.5z" />
<glyph unicode="&#x3c;" d="M184 684v66l660 354q10 6 15 7t11 1q25 0 25 -31v-61l-598 -315l580 -291q12 -8 15 -14.5t3 -24.5v-86l-678 354q-16 10 -24.5 17.5t-8.5 23.5z" />
<glyph unicode="=" d="M154 477v68h761q31 0 31 -31v-68h-762q-31 0 -30 31zM154 879v68h761q31 0 31 -31v-68h-762q-31 0 -30 31z" />
<glyph unicode="&#x3e;" d="M203 328v61l598 316l-580 290q-12 8 -15 14.5t-3 24.5v86l678 -354q16 -10 24 -17.5t8 -23.5v-66l-659 -354q-10 -6 -15.5 -7t-11.5 -1q-25 0 -24 31z" />
<glyph unicode="?" horiz-adv-x="851" d="M92 1327v53q66 23 143.5 39.5t161.5 16.5q98 0 166 -25t111 -68t62.5 -101t19.5 -128q0 -61 -16.5 -110.5t-41 -89.5t-56.5 -73.5t-62 -64.5q-61 -61 -100.5 -103t-63 -80t-31.5 -82t-8 -110h-55q-29 0 -35 25q-4 16 -4 49q0 57 13 101.5t39.5 84t63.5 79.5t84 87 q41 41 71 73t48.5 62.5t27.5 65.5t9 82q0 109 -57.5 164t-194.5 55q-92 0 -162.5 -17.5t-101.5 -17.5q-20 0 -25.5 10.5t-5.5 22.5zM246 84q0 53 23.5 75.5t72.5 22.5q51 0 74.5 -21.5t23.5 -74.5t-23.5 -73.5t-74.5 -20.5q-53 0 -74.5 20.5t-21.5 71.5z" />
<glyph unicode="@" horiz-adv-x="1683" d="M117 524q0 250 66.5 418t178 269.5t256 144.5t300.5 43q125 0 243.5 -30t210.5 -106.5t148.5 -209.5t56.5 -342q0 -135 -26.5 -247t-81 -190.5t-135.5 -121.5t-189 -43h-58q-29 0 -28 34v74q-51 -51 -120 -89t-157 -38q-84 0 -139 30t-89 83t-48 128t-14 165 q0 102 20 197t69.5 168t134.5 117t214 44q25 0 56.5 -2t64 -5t63.5 -9.5t51 -12.5q23 -8 31 -17t6 -32l-39 -733q90 0 148.5 44t92.5 115.5t47 161t13 179.5q0 293 -130 439t-416 146q-133 0 -257 -35.5t-219.5 -122.5t-154 -236.5t-58.5 -377.5q0 -207 50.5 -345 t142.5 -221t223 -119t295 -36q145 0 220 14.5t102 14.5q35 0 34 -33v-53q-49 -18 -154.5 -31.5t-232.5 -13.5q-160 0 -303 38t-252.5 131t-173 252t-63.5 402zM602 498q0 -164 42 -236t149 -72q49 0 90 13.5t74.5 33t59 43t42.5 44.5l31 579q-29 8 -77 13.5t-87 5.5 q-100 0 -163 -34t-98.5 -91.5t-49 -134t-13.5 -164.5z" />
<glyph unicode="A" horiz-adv-x="1099" d="M63 31q41 248 98.5 468t117 399t115 313.5t93.5 207.5h99q14 0 23 -4t20 -24q39 -84 95 -223.5t113.5 -320.5t110.5 -396t90 -451h-94q-27 0 -33 31q-16 98 -36.5 199.5t-45.5 207.5h-565q-27 -111 -48 -219t-40 -219h-82q-35 0 -31 31zM289 543h514q-49 195 -113.5 386 t-142.5 371q-80 -182 -143.5 -370.5t-114.5 -386.5z" />
<glyph unicode="B" horiz-adv-x="1130" d="M158 31v1364q37 6 86 12t103 11t108.5 8.5t101.5 3.5q94 0 174 -18.5t138.5 -63.5t91 -118t32.5 -181q0 -117 -44 -200t-132 -118q106 -35 159.5 -121t53.5 -215q0 -115 -30.5 -190.5t-87 -121.5t-137.5 -64.5t-179 -18.5h-408q-31 0 -30 31zM274 106h318 q82 0 142.5 13.5t99 45.5t57 87t18.5 141q0 80 -20.5 134.5t-62.5 87t-102 46t-140 13.5h-310v-568zM274 778h310q70 0 124 11.5t91 42t56 83t19 134.5t-20 135t-60 83.5t-99.5 43t-139.5 12.5q-92 0 -162.5 -6t-118.5 -14v-525z" />
<glyph unicode="C" horiz-adv-x="1030" d="M125 709q0 190 27.5 327.5t88 226.5t158 131t236.5 42q37 0 77 -3t77.5 -8.5t71.5 -12.5t57 -15q29 -10 28 -43v-60q-57 10 -139 20.5t-160 10.5q-111 0 -186.5 -30.5t-122.5 -101.5t-67.5 -186.5t-20.5 -287.5q0 -199 26.5 -322t78 -190.5t127 -91t173.5 -23.5 q100 0 168 14.5t101 14.5q35 0 34 -33v-55q-51 -18 -135 -34.5t-182 -16.5q-150 0 -249 46t-158.5 138t-84 228t-24.5 315z" />
<glyph unicode="D" horiz-adv-x="1220" d="M158 31v1364q39 6 91 12t109.5 11t115.5 8.5t108 3.5q141 0 239.5 -43.5t158.5 -132.5t88 -224t28 -321q0 -176 -28 -309.5t-90.5 -222.5t-161.5 -133t-243 -44h-385q-31 0 -30 31zM276 106h275q98 0 177 23t132 88.5t82 183t29 308.5q0 178 -21.5 295.5t-70 188.5 t-125 100.5t-185.5 29.5q-86 0 -162.5 -5t-130.5 -15v-1197z" />
<glyph unicode="E" horiz-adv-x="1042" d="M158 31v1388h743q31 0 31 -30v-76h-656v-547h576q31 0 31 -31v-76h-607v-553h650q31 0 30 -30v-76h-768q-31 0 -30 31z" />
<glyph unicode="F" horiz-adv-x="972" d="M158 31v1388h712q31 0 31 -30v-76h-625v-553h525q31 0 30 -31v-76h-555v-653h-88q-31 0 -30 31z" />
<glyph unicode="G" horiz-adv-x="1167" d="M125 707q0 193 29.5 331t95 227t170 130t254.5 41q84 0 167 -11.5t130 -27.5q29 -10 28 -43v-60q-57 10 -141 20.5t-176 10.5q-121 0 -203 -29.5t-133 -99.5t-73.5 -186.5t-22.5 -290.5q0 -201 28.5 -324t86 -190.5t142.5 -90t200 -22.5q66 0 122 5t97 14v491h-246 q-31 0 -31 31v76h363q31 0 30 -31v-643q-72 -25 -160.5 -39t-187.5 -14q-166 0 -276.5 45t-175 136t-91 226t-26.5 318z" />
<glyph unicode="H" horiz-adv-x="1230" d="M158 31v1388h88q31 0 30 -30v-609h678v639h88q31 0 31 -30v-1389h-88q-31 0 -31 31v643h-678v-674h-88q-31 0 -30 31z" />
<glyph unicode="I" horiz-adv-x="434" d="M158 31v1388h88q31 0 30 -30v-1389h-88q-31 0 -30 31z" />
<glyph unicode="J" horiz-adv-x="735" d="M57 39v61q35 -4 67 -6t79 -2q96 0 149.5 29t78 74t29.5 99t5 107v1018h88q31 0 31 -30v-975q0 -86 -11.5 -163t-48.5 -136.5t-108.5 -94t-190.5 -34.5q-90 0 -147 20q-20 8 -21 33z" />
<glyph unicode="K" d="M158 31v1388h88q31 0 30 -30v-613q74 57 156 130t165 156t162 173t144 184h84q31 0 31 -26q0 -10 -6 -19q-86 -127 -251 -297t-382 -350q68 -47 159 -127t186 -179t184 -209t155 -212h-102q-29 0 -41.5 10t-20.5 21q-80 115 -166 213t-167 178t-155.5 142.5t-134.5 107.5 v-672h-88q-31 0 -30 31z" />
<glyph unicode="L" horiz-adv-x="952" d="M158 31v1388h88q31 0 30 -30v-1283h588q31 0 31 -30v-76h-707q-31 0 -30 31z" />
<glyph unicode="M" horiz-adv-x="1415" d="M137 31q6 338 20.5 678t35.5 710h98q25 0 35 -28l383 -904l395 932h88q29 0 31 -30q20 -367 33.5 -710t19.5 -679h-86q-31 0 -31 31q-2 137 -7 286.5t-11 301t-12.5 300t-10.5 285.5l-350 -837h-106q-14 0 -20.5 7t-12.5 21l-338 809q-4 -141 -10.5 -293.5t-12.5 -308.5 t-11 -308.5t-7 -293.5h-82q-31 0 -31 31z" />
<glyph unicode="N" horiz-adv-x="1234" d="M158 31v1388h102q14 0 21.5 -7t17.5 -23q27 -45 75 -126t107.5 -183.5t127 -218.5t132 -230.5t122 -219t98.5 -184.5v1192h86q31 0 30 -30v-1389h-90q-23 0 -39 31q-37 70 -93 172t-121.5 219t-135.5 239.5t-132.5 231t-112.5 196t-79 132.5v-1221h-86q-31 0 -30 31z" />
<glyph unicode="O" horiz-adv-x="1247" d="M125 709q0 219 36 360t101.5 223t157.5 114t203 32q113 0 205 -32t157.5 -114t101 -223t35.5 -360t-35.5 -360.5t-101 -223.5t-158 -113.5t-204.5 -31.5q-111 0 -203 31.5t-157.5 113.5t-101.5 223t-36 361zM250 709q0 -166 17.5 -283t60.5 -191.5t114.5 -109.5 t180.5 -35q106 0 177.5 35t116 109.5t62.5 191.5t18 283t-18 283.5t-61.5 191t-116 108.5t-178.5 35q-109 0 -180.5 -35t-114.5 -108.5t-60.5 -191t-17.5 -283.5z" />
<glyph unicode="P" horiz-adv-x="1118" d="M158 31v1364q37 6 84 12t99 11t106.5 8.5t105.5 3.5q244 0 355.5 -108t111.5 -351q0 -125 -29.5 -211t-84 -140.5t-132.5 -78t-174 -23.5q-63 0 -146 8.5t-178 26.5v-553h-88q-31 0 -30 31zM276 659q72 -16 150 -25t156 -9q80 0 139 16t99 56t59.5 106.5t19.5 167.5 q0 113 -23.5 182.5t-67.5 107t-108.5 50t-144.5 12.5q-92 0 -161.5 -6t-117.5 -14v-644z" />
<glyph unicode="Q" horiz-adv-x="1247" d="M125 709q0 219 36 360t101.5 223t157.5 114t203 32q113 0 205 -32t157.5 -114t101 -223t35.5 -360q0 -139 -15 -247t-43 -187.5t-69 -134t-92 -89.5q57 -66 124 -151.5t110 -163.5h-111q-18 0 -26.5 9t-16.5 22q-18 29 -41.5 61.5t-49.5 65t-50.5 60.5t-42.5 48 q-81 -22 -168 -22h-8q-111 0 -203 31.5t-157.5 113.5t-101.5 223t-36 361zM250 709q0 -166 17.5 -283t60.5 -191.5t114.5 -109.5t180.5 -35q106 0 177.5 35t116 109.5t62.5 191.5t18 283t-18 283.5t-61.5 191t-116 108.5t-178.5 35q-109 0 -180.5 -35t-114.5 -108.5 t-60.5 -191t-17.5 -283.5z" />
<glyph unicode="R" horiz-adv-x="1148" d="M158 31v1364q74 12 184 23.5t227 11.5q123 0 208 -28t139.5 -81t79 -131t24.5 -178q0 -96 -22.5 -165t-62.5 -115t-95.5 -73.5t-118.5 -42.5q53 -61 109.5 -145t106.5 -172t91 -168t64 -131h-101q-23 0 -31 10t-12 21q-20 43 -57 111.5t-85 148.5t-105.5 163t-118.5 152 h-306v-606h-88q-31 0 -30 31zM276 709h308q70 0 127 12t99 46t65.5 93.5t23.5 151.5q0 90 -20.5 149.5t-60.5 95t-102.5 51t-144.5 15.5q-104 0 -175.5 -6t-119.5 -14v-594z" />
<glyph unicode="S" horiz-adv-x="1042" d="M98 1073q0 82 23.5 148.5t75 113.5t134.5 74t199 27q37 0 82 -2t88 -7.5t81 -12.5t65 -15q29 -10 28 -43v-60q-63 10 -154 21.5t-177 11.5q-184 0 -254 -64.5t-70 -189.5q0 -68 17.5 -112.5t54.5 -75.5t95 -53.5t138 -47.5q106 -31 183 -62.5t127.5 -76.5t74 -110.5 t23.5 -163.5q0 -197 -107 -294t-340 -97q-98 0 -194 14t-150 33q-29 10 -28 43v59q63 -10 158.5 -25.5t205.5 -15.5q98 0 163 19.5t101.5 55.5t52 88t15.5 120t-16.5 113.5t-55.5 79.5t-105.5 59.5t-164.5 56.5q-82 25 -149.5 52.5t-116.5 70.5t-76 107.5t-27 160.5z" />
<glyph unicode="T" horiz-adv-x="1042" d="M57 1343v76h897q31 0 31 -30v-76h-405v-1313h-88q-31 0 -31 31v1282h-373q-31 0 -31 30z" />
<glyph unicode="U" horiz-adv-x="1212" d="M152 481v938h88q31 0 30 -30v-908q0 -88 15.5 -159.5t54.5 -123t104.5 -79t163.5 -27.5q100 0 166 27.5t102.5 79t51 123t14.5 159.5v938h88q31 0 31 -30v-906q0 -143 -32 -239.5t-90 -154.5t-142 -82.5t-191 -24.5q-109 0 -192.5 24.5t-142 82.5t-89 154.5t-30.5 237.5z " />
<glyph unicode="V" horiz-adv-x="1095" d="M61 1419h99q27 0 30 -30q18 -106 46 -242.5t71 -297.5t102.5 -341t141.5 -375q84 201 145.5 388.5t104.5 351t70.5 303t46.5 243.5h83q18 0 24.5 -8t4.5 -22q-29 -188 -77 -384t-105 -378.5t-119.5 -344t-120.5 -282.5h-90q-20 0 -28.5 6t-16.5 25q-59 125 -119.5 287.5 t-117 346t-102.5 376t-73 378.5z" />
<glyph unicode="W" horiz-adv-x="1609" d="M82 1419h96q27 0 31 -30q14 -154 42 -315t61.5 -318.5t73.5 -307t81 -278.5l276 1135h107q25 0 31 -29l270 -1106q43 133 83 286.5t74.5 315.5t61.5 327t41 320h84q20 0 25.5 -10t3.5 -20q-16 -156 -45 -329t-71 -352.5t-93 -358.5t-111 -349h-92q-16 0 -24.5 6t-14.5 29 l-268 1102l-275 -1137h-88q-20 0 -27 6t-16 27q-59 168 -110 347t-93 359.5t-71 353.5t-43 326z" />
<glyph unicode="X" horiz-adv-x="1112" d="M84 29q0 12 10 39q25 63 58.5 141t80 163t106.5 176t140 185q-51 61 -109.5 145.5t-113.5 176.5t-100 186t-70 178h102q23 0 33 -30q25 -68 63 -147t84 -157.5t96 -151.5t97 -130q49 59 102.5 137t101.5 161t87 166t57 152h68q16 0 28.5 -4t12.5 -24q0 -12 -10 -39 q-31 -80 -75 -165t-95.5 -168t-104.5 -158t-98 -130q90 -106 156.5 -209.5t115.5 -198t82 -177.5t53 -146h-102q-23 0 -33 31q-47 137 -131 301t-221 327q-72 -86 -127 -169.5t-98 -165.5t-76 -163t-61 -161h-68q-16 0 -28.5 4t-12.5 25z" />
<glyph unicode="Y" horiz-adv-x="1042" d="M49 1419h98q18 0 25.5 -6t13.5 -24q25 -74 60 -165t78 -188.5t94 -195t106 -183.5q57 84 113.5 195t103.5 220.5t81 202.5t44 144h82q32 0 32 -26q0 -8 -3 -19q-37 -111 -77 -211t-87 -198.5t-103.5 -200.5t-129.5 -215v-549h-88q-31 0 -31 31v518q-74 115 -133.5 221.5 t-108.5 210.5t-90 211.5t-80 226.5z" />
<glyph unicode="Z" horiz-adv-x="1073" d="M84 31v67q43 72 99.5 164t120 197.5t132 217t138 223.5t137 217.5t129.5 195.5h-705q-31 0 -31 30v76h840q31 0 31 -30v-72q-113 -166 -221.5 -337t-204.5 -329.5t-178 -298t-144 -246.5h731q31 0 31 -30v-76h-874q-31 0 -31 31z" />
<glyph unicode="[" horiz-adv-x="651" d="M158 -139v1712h401q31 0 31 -31v-69h-318v-1543h287q31 0 31 -30v-70h-402q-31 0 -30 31z" />
<glyph unicode="\" horiz-adv-x="706" d="M57 1573h84q20 0 28.5 -11.5t14.5 -33.5l465 -1698h-84q-20 0 -28.5 11.5t-14.5 33.5z" />
<glyph unicode="]" horiz-adv-x="651" d="M61 -70h318v1543h-287q-31 0 -31 30v70h402q31 0 31 -31v-1712h-402q-31 0 -31 31v69z" />
<glyph unicode="^" d="M165 700.5q-7 10.5 3 28.5l330 649h82q16 0 24 -14l342 -674h-96q-23 0 -31 19l-272 542l-283 -561h-78q-14 0 -21 10.5z" />
<glyph unicode="_" horiz-adv-x="1024" d="M0 -105h1024v-102h-1024v102z" />
<glyph unicode="`" horiz-adv-x="884" d="M240 1450h125q29 0 41 -31q27 -57 51 -114.5t53 -126.5h-70q-29 0 -45 28z" />
<glyph unicode="a" horiz-adv-x="991" d="M92 303q0 174 99.5 250t285.5 76h268v80q0 68 -14 114.5t-48 74.5t-88 40t-134 12q-94 0 -169 -12t-102 -12q-33 0 -32 35v49q80 23 166 31t159 8q113 0 186.5 -26t115.5 -72t58.5 -108.5t16.5 -137.5v-705h-76q-31 0 -30 31l-4 82q-25 -25 -60 -48.5t-77 -42t-90 -30.5 t-101 -12q-170 0 -250 86t-80 237zM201 305q0 -125 63.5 -177t169.5 -52q104 0 181 44t130 97v318h-272q-80 0 -133 -18.5t-84 -50.5t-43 -74t-12 -87z" />
<glyph unicode="b" horiz-adv-x="1044" d="M139 86v1384h64q29 0 40 -10t11 -41v-461q55 39 128 68t177 29q186 0 279.5 -133.5t93.5 -393.5q0 -152 -25.5 -256t-78 -168.5t-132.5 -94t-190 -29.5q-45 0 -95.5 5t-96.5 13t-82.5 17.5t-55.5 17.5q-27 10 -32 22.5t-5 30.5zM254 111q51 -12 111.5 -22.5t128.5 -10.5 q82 0 143 19.5t100 68.5t58.5 135t19.5 221q0 231 -69.5 331.5t-206.5 100.5q-96 0 -165 -30.5t-120 -69.5v-743z" />
<glyph unicode="c" horiz-adv-x="845" d="M113 510q0 287 100 413t297 126q31 0 66.5 -3.5t67.5 -7.5t57.5 -9t37.5 -11q27 -10 27 -37v-57q-66 10 -124 17t-118 7q-74 0 -129 -21.5t-92 -70.5t-55.5 -132t-18.5 -206q0 -135 21.5 -220t60.5 -133t94.5 -65.5t120.5 -17.5q74 0 132.5 11t82.5 11q18 0 25.5 -10 t7.5 -20v-54q-45 -16 -122 -27t-142 -11q-113 0 -189.5 37.5t-122.5 107.5t-65.5 167t-19.5 216z" />
<glyph unicode="d" horiz-adv-x="1044" d="M113 516q0 289 106.5 414t308.5 125q102 0 165 -22.5t98 -39.5v477h83q31 0 31 -30v-1440h-76q-31 0 -30 31l-4 82q-49 -49 -126 -91t-196 -42q-104 0 -174 39.5t-112 110.5t-58 169t-16 217zM229 518q0 -219 55.5 -328.5t209.5 -109.5q55 0 100 13t82 33.5t65.5 45.5 t49.5 47v678q-53 25 -111.5 41t-136.5 16q-84 0 -143.5 -23.5t-97.5 -75.5t-55.5 -135t-17.5 -202z" />
<glyph unicode="e" horiz-adv-x="1001" d="M113 510q0 150 26.5 253t78.5 167.5t129 94.5t177 30q113 0 185.5 -34t112.5 -92.5t55.5 -138t15.5 -172.5q0 -41 -4 -81.5t-10 -65.5h-652q6 -104 22.5 -178t54.5 -121t103.5 -68.5t167.5 -21.5q100 0 161 11t85 11q18 0 25.5 -10t7.5 -20v-54q-45 -16 -126 -26 t-171 -12q-115 0 -199 27.5t-138 90t-80.5 164t-26.5 246.5zM227 567h551q2 14 2 27.5v26.5q0 82 -10 145t-39 104t-78 62.5t-129 21.5q-86 0 -142 -28.5t-90 -80.5t-48.5 -123t-16.5 -155z" />
<glyph unicode="f" horiz-adv-x="647" d="M78 963v67h123v203q0 53 11 100t41 83t78 56.5t122 20.5q10 0 27.5 -1t37 -3t40 -5t34.5 -9q16 -6 19 -16.5t3 -20.5v-54q-53 6 -82.5 8.5t-60.5 2.5q-51 0 -82 -11.5t-47 -34t-21.5 -54t-5.5 -72.5v-193h244q31 0 31 -31v-67h-275v-932h-84q-31 0 -30 31v901h-92 q-31 0 -31 31z" />
<glyph unicode="g" horiz-adv-x="1042" d="M113 510q0 160 31.5 264.5t93 163.5t148.5 82.5t198 23.5q37 0 85 -2t95 -6t87 -9t64 -9q27 -6 35 -15.5t8 -27.5v-47h-65v-942q0 -164 -92 -256t-291 -92q-72 0 -150.5 7t-148.5 27q-27 8 -27 39v58q68 -12 141.5 -21.5t168.5 -9.5q82 0 137 16.5t88 49t46 77.5t13 105 v118q-53 -37 -123.5 -68.5t-169.5 -31.5q-195 0 -283.5 127t-88.5 379zM229 514q0 -223 65.5 -316.5t215.5 -93.5q82 0 153.5 33t114.5 68v733q-45 4 -96 6t-117 2q-78 0 -140.5 -17.5t-105.5 -64.5t-66.5 -131t-23.5 -219z" />
<glyph unicode="h" horiz-adv-x="1048" d="M139 31v1439h84q31 0 31 -30v-520q47 51 131 93t207 42q150 0 238 -85t88 -274v-696h-84q-31 0 -31 31v661q0 141 -64.5 201.5t-171.5 60.5q-55 0 -103 -13t-88 -34.5t-71 -47t-51 -48.5v-811h-84q-31 0 -31 31z" />
<glyph unicode="i" horiz-adv-x="401" d="M120 1315q0 47 20.5 65.5t63.5 18.5t63.5 -18.5t20.5 -65.5t-20.5 -65.5t-63.5 -18.5t-63.5 18.5t-20.5 65.5zM143 31v999h84q31 0 31 -31v-999h-84q-31 0 -31 31z" />
<glyph unicode="j" horiz-adv-x="401" d="M-49 -258q20 -2 39.5 -2h40.5q70 0 91 29.5t21 83.5v1177h84q31 0 31 -31v-1146q0 -39 -9 -77t-31.5 -66.5t-61.5 -47t-101 -18.5q-57 0 -84 12q-20 12 -20 37v49zM120 1315q0 47 20.5 65.5t63.5 18.5t63.5 -18.5t20.5 -65.5t-20.5 -65.5t-63.5 -18.5t-63.5 18.5 t-20.5 65.5z" />
<glyph unicode="k" horiz-adv-x="952" d="M139 31v1439h84q31 0 31 -30v-852q172 111 292 224.5t210 217.5h73q29 0 29 -20q0 -14 -11 -28.5t-22 -27.5q-29 -33 -76 -81t-106 -103t-129.5 -112.5t-146.5 -110.5q98 -72 174.5 -135.5t141.5 -128t121 -133t116 -150.5h-115q-23 0 -39 23q-92 125 -213 238.5 t-299 240.5v-502h-84q-31 0 -31 31z" />
<glyph unicode="l" horiz-adv-x="481" d="M139 182v1288h84q31 0 31 -30v-1254q0 -66 23.5 -81t74.5 -15h43q16 0 22.5 -9t6.5 -20v-55q-20 -4 -52 -9t-61 -5q-88 0 -130 52t-42 138z" />
<glyph unicode="m" horiz-adv-x="1650" d="M139 31v999h76q31 0 31 -31l4 -81q20 23 51 47t72 43.5t92 33t110 13.5q98 0 168 -38t107 -122q20 25 53 52.5t77 51t101.5 40t126.5 16.5q143 0 227.5 -85t84.5 -274v-696h-84q-31 0 -31 31v661q0 141 -60.5 201.5t-160.5 60.5q-55 0 -103.5 -15t-86.5 -38.5 t-67.5 -50.5t-47.5 -49q4 -25 6 -50.5t2 -54.5v-696h-84q-31 0 -31 31v661q0 141 -60.5 201.5t-160.5 60.5q-53 0 -98 -13t-83 -34.5t-67 -47t-49 -48.5v-811h-84q-31 0 -31 31z" />
<glyph unicode="n" horiz-adv-x="1048" d="M139 31v999h76q31 0 31 -31l4 -81q20 23 53 47t76 43.5t96 33t117 13.5q150 0 238 -85t88 -274v-696h-84q-31 0 -31 31v661q0 141 -64.5 201.5t-171.5 60.5q-55 0 -103 -13t-88 -34.5t-71 -47t-51 -48.5v-811h-84q-31 0 -31 31z" />
<glyph unicode="o" horiz-adv-x="1060" d="M113 516q0 274 98 406.5t319 132.5t319.5 -132t98.5 -407q0 -276 -98 -408.5t-320 -132.5q-221 0 -319 132.5t-98 408.5zM229 516q0 -121 18.5 -205t56.5 -136t94 -75.5t132 -23.5t132.5 23.5t94.5 75.5t56 136t18 205t-18 204t-56 135t-94.5 75.5t-132.5 23.5 t-132 -23.5t-94 -75.5t-56.5 -135t-18.5 -204z" />
<glyph unicode="p" horiz-adv-x="1048" d="M84 958v54q37 6 83 12t95 10t98.5 7t90.5 3q121 0 212 -25.5t151 -85t91 -158.5t31 -247q0 -131 -20.5 -232t-67.5 -170t-125 -104.5t-195 -35.5q-102 0 -165.5 22.5t-98.5 38.5v-395h-84q-31 0 -30 31v1245h-35q-31 0 -31 30zM264 145q53 -25 112.5 -42t137.5 -17 t135.5 20.5t95 70.5t56 133t18.5 210q0 115 -18.5 196t-61.5 132t-114.5 74.5t-178.5 23.5q-35 0 -86 -2t-96 -6v-793z" />
<glyph unicode="q" horiz-adv-x="1048" d="M113 494q0 166 32.5 272t94 168.5t150.5 86t200 23.5q37 0 85 -2t95 -6t87 -9t65 -9q27 -6 35 -15.5t8 -27.5v-47h-66v-1276h-84q-31 0 -31 31v403q-55 -39 -125.5 -69.5t-175.5 -30.5q-197 0 -283.5 123.5t-86.5 384.5zM229 498q0 -115 16.5 -194t50.5 -127t85 -69.5 t123 -21.5q86 0 157.5 33t122.5 71v748q-45 4 -96 6t-117 2q-78 0 -140 -17.5t-107 -66.5t-70 -137t-25 -227z" />
<glyph unicode="r" horiz-adv-x="677" d="M139 31v999h76q31 0 31 -31l4 -114q23 25 55.5 51.5t72.5 48t86 35.5t95 14q41 0 51.5 -8t10.5 -25v-73q-14 2 -30 2h-26q-94 0 -166.5 -38t-144.5 -120v-772h-84q-31 0 -31 31z" />
<glyph unicode="s" horiz-adv-x="890" d="M94 772q0 131 85 204t261 73q18 0 54 -1t76 -5.5t79 -10.5t64 -14q27 -10 26 -39v-55q-63 10 -136 18t-142 8q-74 0 -123 -11t-79 -32.5t-41 -53.5t-11 -75q0 -47 13 -76.5t44 -51t79 -37t118 -31.5t130 -36t105 -51.5t71 -84t26 -134.5q0 -160 -97.5 -227t-271.5 -67 q-25 0 -66 2t-84 6t-83 10t-60 16q-27 10 -27 39v58q53 -10 131 -20.5t164 -10.5t140.5 12t85 37t42 59.5t11.5 81.5q0 55 -17.5 88t-52.5 55.5t-88 38t-125 33.5q-61 16 -116.5 35t-96.5 49.5t-64.5 78.5t-23.5 122z" />
<glyph unicode="t" horiz-adv-x="661" d="M78 963v67h123v277h84q31 0 30 -31v-246h234q31 0 31 -31v-67h-265v-725q0 -29 4.5 -50.5t19.5 -38t45 -24.5t81 -8q23 0 43.5 1t30.5 1q25 0 33 -9t8 -22v-55q-78 -16 -146 -16t-113 15t-71.5 43t-37.5 65.5t-11 83.5v739h-92q-31 0 -31 31z" />
<glyph unicode="u" horiz-adv-x="1048" d="M131 334v696h84q31 0 31 -31v-661q0 -141 64.5 -201.5t170.5 -60.5q55 0 103.5 13t88.5 34.5t70.5 47.5t51.5 48v811h84q31 0 30 -31v-999h-75q-31 0 -31 31l-4 82q-23 -23 -54.5 -47.5t-74.5 -45t-96.5 -33t-116.5 -12.5q-150 0 -238 85t-88 274z" />
<glyph unicode="v" horiz-adv-x="923" d="M51 1030h92q27 0 31 -31q35 -236 114 -467t175 -423q49 98 94 209.5t84 230.5t68.5 239.5t46.5 241.5h86q16 0 21 -8t3 -23q-16 -123 -51 -252t-81 -257t-101 -252.5t-113 -237.5h-92q-20 0 -26.5 6t-16.5 27q-57 115 -111.5 239.5t-98.5 251.5t-76.5 255t-47.5 251z" />
<glyph unicode="w" horiz-adv-x="1413" d="M72 1030h90q27 0 31 -31q12 -102 33.5 -214.5t50 -227.5t62.5 -224.5t71 -203.5l241 823h92q23 0 31 -28l234 -795q37 98 71.5 213t64.5 233.5t51.5 235.5t33.5 219h80q20 0 25 -10t3 -21q-14 -117 -41.5 -245.5t-63.5 -260t-80 -257t-93 -236.5h-90q-16 0 -24.5 6 t-14.5 29l-223 766l-234 -801h-90q-20 0 -26.5 6t-16.5 27q-47 113 -91 240.5t-79 258t-60.5 257t-37.5 241.5z" />
<glyph unicode="x" horiz-adv-x="940" d="M61 1030h101q14 0 20 -7t13 -22q23 -51 55.5 -106t70 -108.5t76.5 -103.5t76 -89q90 96 170 213t123 223h59q16 0 28.5 -3t12.5 -21q0 -6 -5 -18.5t-11 -24.5q-29 -59 -67 -120t-79.5 -118t-83.5 -106.5t-75 -86.5q150 -152 229.5 -293t116.5 -239h-103q-14 0 -20 7.5 t-12 21.5q-47 109 -115 218t-172 220q-115 -123 -183.5 -236.5t-117.5 -230.5h-64q-16 0 -28.5 3t-12.5 22q0 6 5.5 18t11.5 27q51 113 126 228.5t191 231.5q-43 47 -93 107.5t-97 127t-86 135.5t-60 130z" />
<glyph unicode="y" horiz-adv-x="933" d="M57 1030h88q20 0 26.5 -7t8.5 -24q16 -117 48 -234.5t74 -230t90.5 -218t99.5 -197.5q98 203 161.5 428t100.5 483h82q18 0 24 -8t4 -23q-35 -244 -109.5 -483.5t-185.5 -462.5q-49 -98 -94 -174t-91 -128t-98.5 -79.5t-115.5 -27.5q-47 0 -74 12q-20 12 -20 37v49 q20 -2 36.5 -2h32.5q47 0 84 16.5t69 50t63.5 85t68.5 120.5q-66 113 -126 240t-110.5 259t-86 264t-50.5 255z" />
<glyph unicode="z" horiz-adv-x="935" d="M92 31v53q55 84 129 190.5t156 219t166 226.5t162 212h-564q-31 0 -30 31v67h684q45 0 45 -53v-35q-90 -115 -179.5 -234.5t-169 -232.5t-147.5 -210t-113 -167h582q31 0 31 -30v-68h-721q-31 0 -31 31z" />
<glyph unicode="{" horiz-adv-x="669" d="M102 680v72q16 0 34 6t33 18t24.5 35t9.5 57v441q0 51 8 99t34.5 87t76 62.5t129.5 23.5q20 0 63 -5t72 -15q16 -6 19 -14.5t3 -18.5v-49q-53 4 -80.5 5t-56.5 1q-51 0 -81 -14.5t-46 -43t-21.5 -70.5t-5.5 -95v-381q0 -20 -3 -46t-13 -50.5t-28.5 -46t-49.5 -36.5 q31 -14 49.5 -35.5t28.5 -46t13 -50t3 -46.5v-383q0 -53 5.5 -95t21.5 -70.5t46 -43t81 -14.5q39 0 67.5 2t39.5 2q31 0 30 -31v-43q-16 -6 -38.5 -11t-45 -8t-43 -5t-30.5 -2q-80 0 -129.5 23.5t-76 61.5t-34.5 87t-8 100v443q0 55 -23.5 79.5t-48.5 30.5q-16 4 -22.5 10.5 t-6.5 22.5z" />
<glyph unicode="|" horiz-adv-x="528" d="M209 -139v1712h80q31 0 30 -31v-1712h-79q-31 0 -31 31z" />
<glyph unicode="}" horiz-adv-x="669" d="M61 -76q53 -4 81 -5t57 -1q51 0 80.5 14.5t46 43t21.5 70.5t5 95v383q0 20 3 46t13.5 50.5t29 46t48.5 35.5q-31 14 -49 36t-28.5 46.5t-13.5 50t-3 46.5v381q0 53 -5 95t-21.5 70.5t-46 43t-80.5 14.5q-39 0 -68 -2t-39 -2q-31 0 -31 30v43q14 6 38 11.5t46.5 8.5t43 5 t30.5 2q80 0 129 -23.5t76 -62.5t35 -87t8 -99v-441q0 -55 23.5 -79.5t48.5 -30.5q16 -4 22 -10.5t6 -22.5v-72q-16 0 -33.5 -6t-33 -18.5t-24.5 -35t-9 -56.5v-443q0 -51 -8 -100t-35 -87t-76 -61.5t-129 -23.5q-20 0 -63 5t-72 15q-16 6 -19.5 14.5t-3.5 18.5v49z" />
<glyph unicode="~" d="M143 584q0 125 54.5 180t146.5 55q72 0 129 -31.5t105 -66.5q57 -41 94 -60.5t84 -19.5q33 0 52 13.5t30.5 37t14.5 54t3 67.5h68q20 0 26 -10t6 -25q0 -125 -54 -180t-146 -55q-72 0 -129.5 31.5t-104.5 66.5q-57 41 -94 60.5t-84 19.5q-33 0 -52.5 -13.5t-30.5 -37 t-14 -54t-3 -67.5h-68q-20 0 -26.5 10t-6.5 25z" />
<glyph unicode="&#xa1;" horiz-adv-x="481" d="M143 983q0 53 23.5 74.5t73.5 21.5q51 0 74.5 -21.5t23.5 -74.5t-23.5 -73.5t-74.5 -20.5q-53 0 -75 20.5t-22 73.5zM182 139q0 139 2 263t13 268h59q31 0 31 -31q10 -123 11 -251t1 -249v-487h-86q-31 0 -31 31v456z" />
<glyph unicode="&#xa2;" d="M227 707q0 281 99.5 407.5t294.5 130.5l16 174h65q31 0 29 -24l-14 -154q53 -4 98 -11t64 -16q29 -10 28 -36v-58q-53 6 -101 13.5t-97 11.5l-74 -869q104 0 162.5 12.5t83.5 12.5q20 0 27 -10t7 -21v-53q-45 -16 -124.5 -27.5t-163.5 -11.5l-17 -203h-65q-31 0 -29 25 l14 186q-86 16 -143 60.5t-93 112t-51.5 155.5t-15.5 193zM344 715q0 -104 13.5 -179t39 -125.5t62.5 -79t82 -40.5l71 854q-68 -6 -118 -30.5t-83.5 -76t-50 -130t-16.5 -193.5z" />
<glyph unicode="&#xa3;" d="M174 688v66h158q-16 70 -28.5 134t-12.5 124q0 190 92 298.5t291 108.5q78 0 150.5 -10t123.5 -29q16 -6 20.5 -17t4.5 -22v-59q-53 10 -131 20.5t-156 10.5q-147 0 -211.5 -68.5t-64.5 -228.5q0 -57 12 -122t31 -140h335q31 0 31 -27v-70h-344q6 -29 8 -54t2 -52 q0 -74 -16 -140.5t-41 -124t-52.5 -103.5t-51.5 -77h651q31 0 31 -30v-76h-781q-31 0 -30 31v75q76 88 125 201t49 236q0 55 -13 114h-151q-31 0 -31 31z" />
<glyph unicode="&#xa4;" d="M94 1079l56 56q18 18 40 -2l125 -127q45 31 103.5 48t130.5 17q141 0 233 -63l146 145l57 -53q18 -20 -2 -41l-125 -125q70 -94 70 -240q0 -70 -17.5 -131t-52.5 -108l146 -146l-56 -55q-20 -20 -41 2l-125 127q-45 -31 -103 -48.5t-130 -17.5q-141 0 -234 64l-145 -145 l-57 53q-10 10 -9.5 20t11.5 21l125 125q-70 94 -70 239q0 70 17.5 131.5t52.5 108.5zM279 694q0 -123 66.5 -198.5t203.5 -75.5t203.5 75.5t66.5 198.5t-66.5 199t-203.5 76t-203.5 -76t-66.5 -199z" />
<glyph unicode="&#xa5;" d="M70 1386h96q16 0 23.5 -6t13.5 -24q25 -70 58.5 -157t74.5 -181t88 -188.5t102 -176.5q55 82 108.5 189.5t98.5 212t77 193.5t42 138h80q43 0 29 -43q-31 -90 -64 -176t-72 -170t-84 -170t-100 -178h248q31 0 31 -31v-61h-340v-229h311q31 0 31 -31v-61h-342v-236h-86 q-31 0 -31 31v205h-311q-31 0 -31 30v62h342v229h-311q-31 0 -31 31v61h280q-55 94 -102 183.5t-87 178.5t-75 181t-67 194z" />
<glyph unicode="&#xa6;" horiz-adv-x="528" d="M209 -139v651h80q31 0 30 -31v-651h-79q-31 0 -31 31zM209 922v651h80q31 0 30 -31v-651h-79q-31 0 -31 31z" />
<glyph unicode="&#xa7;" horiz-adv-x="1038" d="M106 649q0 106 49.5 179t170.5 128q-76 33 -118 85.5t-42 138.5q0 72 26.5 122t74.5 82.5t113.5 47t145.5 14.5q25 0 64 -3t79 -7t77.5 -11.5t60.5 -15.5q29 -12 29 -41v-53q-72 10 -147 18t-148 8q-125 0 -192.5 -33.5t-67.5 -119.5q0 -43 12 -70.5t45 -48t86 -40 t137 -46.5q96 -31 167 -60.5t118 -68.5t70.5 -92t23.5 -131q0 -109 -48 -180.5t-171 -126.5q78 -33 122 -90.5t44 -147.5q0 -86 -34 -140.5t-89 -86t-127 -44t-148 -12.5q-39 0 -85 3.5t-91 9.5t-84 14t-63 16q-27 10 -27 43v56q72 -16 164 -25.5t178 -9.5q137 0 213 36 t76 132q0 49 -13.5 78.5t-45 51t-87 41t-139.5 46.5q-96 31 -166.5 60.5t-117.5 69.5t-71 93t-24 131zM223 662q0 -59 13.5 -97.5t55.5 -69t117.5 -59t198.5 -67.5q111 35 163 99t52 150q0 57 -13 96.5t-55 70t-118 59t-199 67.5q-111 -35 -163 -99t-52 -150z" />
<glyph unicode="&#xa8;" horiz-adv-x="884" d="M190 1313q0 45 19.5 63.5t62.5 18.5q41 0 61.5 -18.5t20.5 -63.5t-20.5 -63.5t-61.5 -18.5q-43 0 -62.5 18.5t-19.5 63.5zM530 1313q0 45 19.5 63.5t62.5 18.5q41 0 61.5 -18.5t20.5 -63.5t-20.5 -63.5t-61.5 -18.5q-43 0 -62.5 18.5t-19.5 63.5z" />
<glyph unicode="&#xa9;" horiz-adv-x="1609" d="M102 709q0 172 47.5 308t138.5 230t221 143.5t296 49.5t296 -49.5t221 -143.5t138 -230t47 -308t-47 -308.5t-138 -230.5t-221 -143.5t-296 -49.5t-296 49.5t-221 143.5t-138.5 230.5t-47.5 308.5zM213 709q0 -129 30.5 -243t99.5 -200t182.5 -135t279.5 -49t279.5 49 t182 135t99.5 200t31 243t-31 242.5t-99.5 199.5t-182 135t-279.5 49t-279.5 -49t-182.5 -135t-99.5 -199.5t-30.5 -242.5zM496 707q0 217 85 309t244 92q49 0 101.5 -6t72.5 -15q23 -8 23 -28v-64q-53 6 -91 9.5t-79 3.5q-55 0 -100 -11.5t-76 -44t-48.5 -90t-17.5 -151.5 q0 -106 19.5 -167t52.5 -89.5t77 -35.5t91 -7q59 0 90 5t59 5q27 0 27 -25v-57q-27 -10 -87 -19.5t-120 -9.5q-168 0 -245.5 95.5t-77.5 300.5z" />
<glyph unicode="&#xaa;" horiz-adv-x="737" d="M84 961q0 117 70.5 170t203.5 53h158v43q0 43 -14.5 69.5t-38 40t-56 17.5t-69.5 4q-55 0 -100 -8.5t-68 -8.5q-29 0 -29 23v53q47 14 105.5 21.5t105.5 7.5q143 0 202.5 -59.5t59.5 -149.5v-463h-61q-8 0 -17.5 7t-9.5 24l-4 63q-35 -35 -92 -69.5t-133 -34.5 q-100 0 -156.5 51t-56.5 146zM113 565v60h471q31 0 30 -31v-57h-471q-31 0 -30 28zM180 969q0 -61 34 -90t93 -29q33 0 66 10t60.5 26.5t49 36t33.5 38.5v141h-162q-98 0 -136 -37t-38 -96z" />
<glyph unicode="&#xab;" horiz-adv-x="786" d="M92 530l189 383h77q14 0 21.5 -12t-2.5 -33l-166 -338l178 -383h-84q-14 0 -26.5 5.5t-18.5 19.5zM401 530l189 383h77q14 0 21.5 -12t-2.5 -33l-166 -338l178 -383h-84q-14 0 -26.5 5.5t-18.5 19.5z" />
<glyph unicode="&#xac;" d="M154 821v68h743q31 0 31 -31v-432h-66q-31 0 -31 31v334h-647q-31 0 -30 30z" />
<glyph unicode="&#xad;" horiz-adv-x="784" d="M98 539v71h557q31 0 31 -30v-72h-557q-31 0 -31 31z" />
<glyph unicode="&#xae;" horiz-adv-x="1015" d="M84 1063q0 201 111.5 315.5t310.5 114.5t310.5 -114.5t111.5 -315.5t-111.5 -315.5t-310.5 -114.5t-310.5 114.5t-111.5 315.5zM166 1063q0 -166 88 -261t252 -95t252 95t88 261t-88 261t-252 95t-252 -95t-88 -261zM352 874v402q14 2 36 5t44.5 5t43 3t32.5 1 q80 0 117 -35.5t37 -97.5q0 -55 -26 -82.5t-61 -40.5q14 -18 32 -43.5t33 -51.5t27.5 -50.5t18.5 -40.5h-65q-12 0 -17.5 5t-9.5 11q-10 27 -34.5 71t-55.5 85h-74v-172h-51q-27 0 -27 26zM430 1083h72q43 0 62.5 14.5t19.5 59.5q0 43 -21.5 55.5t-66.5 12.5q-12 0 -33 -1 t-33 -3v-138z" />
<glyph unicode="&#xaf;" horiz-adv-x="884" d="M207 1292v68h440q31 0 31 -31v-67h-440q-31 0 -31 30z" />
<glyph unicode="&#xb0;" horiz-adv-x="684" d="M84 1161q0 117 70.5 187.5t187.5 70.5t187.5 -70.5t70.5 -187.5t-70.5 -187.5t-187.5 -70.5t-187.5 70.5t-70.5 187.5zM182 1161q0 -76 42 -122t118 -46t118 46t42 122t-42 122t-118 46t-118 -46t-42 -122z" />
<glyph unicode="&#xb1;" d="M154 35v68h761q31 0 31 -31v-68h-762q-31 0 -30 31zM154 686v68h344v366h73q31 0 31 -30v-336h313q31 0 31 -31v-68h-344v-366h-74q-31 0 -30 30v336h-314q-31 0 -30 31z" />
<glyph unicode="&#xb2;" horiz-adv-x="780" d="M119 612v39q0 61 17.5 111.5t48 91.5t73.5 75t94 66q94 59 143.5 98.5t49.5 98.5q0 53 -39 85t-152 32q-45 0 -80.5 -5.5t-60.5 -9.5q-29 -6 -47 -6q-23 0 -28 10.5t-5 24.5v43q47 16 107.5 25.5t132.5 9.5q139 0 207.5 -54.5t68.5 -152.5q0 -47 -15.5 -82t-42 -63.5 t-64.5 -54t-81 -52.5q-37 -25 -76.5 -51.5t-71.5 -58t-53.5 -71.5t-23.5 -91h395q35 0 35 -33v-59h-497q-16 0 -25.5 10t-9.5 24z" />
<glyph unicode="&#xb3;" horiz-adv-x="780" d="M96 627v51q61 -10 111.5 -16.5t109.5 -6.5q121 0 166 42t45 110q0 86 -52 113.5t-144 27.5h-62q-35 0 -34 33v59h106q51 0 84 14.5t51.5 36t24.5 47t6 50.5q0 59 -40 90t-132 31q-61 0 -112.5 -9.5t-80.5 -9.5q-23 0 -28.5 9.5t-5.5 25.5v45q43 10 101 20.5t132 10.5 q137 0 203.5 -57.5t66.5 -155.5q0 -63 -28.5 -108.5t-73.5 -73.5q59 -27 92 -73t33 -124q0 -129 -83 -187.5t-226 -58.5q-14 0 -41 1t-56.5 4t-58.5 7.5t-45 10.5q-29 8 -29 41z" />
<glyph unicode="&#xb4;" horiz-adv-x="884" d="M381 1186q-6 8 0 22q29 66 58.5 124.5t60.5 117.5h108q16 0 23.5 -9t-2.5 -26l-164 -237h-64q-14 0 -20 8z" />
<glyph unicode="&#xb5;" horiz-adv-x="1056" d="M139 -317v1347h84q31 0 31 -31v-661q0 -141 64.5 -201.5t170.5 -60.5q55 0 103.5 13t88.5 34.5t70.5 47.5t51.5 48v811h84q31 0 31 -31v-999h-76q-31 0 -31 31l-4 82q-23 -23 -54.5 -47.5t-74.5 -45t-94.5 -33t-112.5 -12.5q-16 0 -43 3.5t-57.5 12.5t-62.5 25.5 t-54 44.5v-409h-84q-31 0 -31 31z" />
<glyph unicode="&#xb6;" horiz-adv-x="1126" d="M106 987q0 129 37 214t104.5 135t164 69.5t213.5 19.5q37 0 85 -2t95 -6t87 -9t64 -9q27 -6 35 -13.5t8 -25.5v-51h-65v-1479h-82q-31 0 -31 31v1458q-47 4 -96 6t-107 2h-32.5t-36.5 -4v-1493h-82q-31 0 -31 31v725q-80 8 -141.5 33.5t-103 73.5t-63.5 120t-22 174z" />
<glyph unicode="&#xb7;" horiz-adv-x="456" d="M131 696q0 53 23.5 74.5t72.5 21.5q51 0 75 -21.5t24 -74.5t-23.5 -73.5t-75.5 -20.5q-53 0 -74.5 20.5t-21.5 73.5z" />
<glyph unicode="&#xb8;" horiz-adv-x="884" d="M262 -305h66q53 0 88 8t35 53q0 29 -19.5 39t-56.5 19l-21 4q-23 4 -33 11t-10 24q0 16 15 51l45 106h82l-54 -125l31 -6q66 -14 92.5 -44t26.5 -79q0 -25 -7 -50t-26.5 -44.5t-54.5 -32t-88 -12.5q-59 0 -90 10q-20 6 -21 25v43z" />
<glyph unicode="&#xb9;" horiz-adv-x="780" d="M139 1245v51l78 31q63 25 103 41t64 24.5t36 11.5t22 3q35 0 35 -33v-796h-74q-14 0 -23 10t-9 24v672l-168 -65q-8 -4 -17.5 -5.5t-13.5 -1.5q-33 0 -33 33z" />
<glyph unicode="&#xba;" horiz-adv-x="737" d="M90 1106q0 182 73 261t206 79q131 0 204.5 -79t73.5 -261t-73.5 -261t-204.5 -79q-133 0 -206 79t-73 261zM117 567v58h471q31 0 30 -31v-57h-471q-31 0 -30 30zM193 1106q0 -135 44 -193.5t132 -58.5t132 58.5t44 193.5t-44 193.5t-132 58.5t-132 -58.5t-44 -193.5z" />
<glyph unicode="&#xbb;" horiz-adv-x="786" d="M88 913h84q14 0 26.5 -5t18.5 -19l168 -359l-188 -383h-78q-14 0 -21.5 12.5t2.5 33.5l166 337zM397 913h84q14 0 26.5 -5t18.5 -19l168 -359l-188 -383h-78q-14 0 -21.5 12.5t2.5 33.5l166 337z" />
<glyph unicode="&#xbc;" horiz-adv-x="1806" d="M139 1245v51l78 31q63 25 103 41t64 24.5t36 11.5t22 3q35 0 35 -33v-796h-74q-14 0 -23 10t-9 24v672l-168 -65q-8 -4 -17.5 -5.5t-13.5 -1.5q-33 0 -33 33zM417 27q0 12 9 26l817 1333h65q31 0 31 -26q0 -12 -8 -27l-817 -1333h-66q-31 0 -31 27zM1112 238v43 q18 61 54 132t87 142.5t116.5 138t143.5 119.5h72q35 0 35 -34v-490h61q16 0 24.5 -10t8.5 -25v-51h-94v-198h-64q-35 0 -35 34v164h-376q-33 0 -33 35zM1212 289h309v418q-59 -43 -109 -96.5t-89 -108.5t-67.5 -110.5t-43.5 -102.5z" />
<glyph unicode="&#xbd;" horiz-adv-x="1806" d="M139 1245v51l78 31q63 25 103 41t64 24.5t36 11.5t22 3q35 0 35 -33v-796h-74q-14 0 -23 10t-9 24v672l-168 -65q-8 -4 -17.5 -5.5t-13.5 -1.5q-33 0 -33 33zM370 27q0 12 9 26l817 1333h65q31 0 31 -26q0 -12 -8 -27l-817 -1333h-66q-31 0 -31 27zM1151 39v39 q0 61 17.5 111.5t48 91.5t73.5 75t94 66q94 59 143.5 98.5t49.5 98.5q0 53 -39 85t-152 32q-45 0 -80.5 -5.5t-60.5 -9.5q-29 -6 -47 -6q-23 0 -28 10.5t-5 24.5v43q47 16 107.5 25.5t132.5 9.5q139 0 207.5 -54.5t68.5 -152.5q0 -47 -15.5 -82t-42 -63.5t-64.5 -54 t-81 -52.5q-37 -25 -76.5 -51.5t-71.5 -58t-53.5 -71.5t-23.5 -91h395q35 0 35 -33v-59h-497q-16 0 -25.5 10t-9.5 24z" />
<glyph unicode="&#xbe;" horiz-adv-x="1806" d="M96 627v51q61 -10 111.5 -16.5t109.5 -6.5q121 0 166 42t45 110q0 86 -52 113.5t-144 27.5h-62q-35 0 -34 33v59h106q51 0 84 14.5t51.5 36t24.5 47t6 50.5q0 59 -40 90t-132 31q-61 0 -112.5 -9.5t-80.5 -9.5q-23 0 -28.5 9.5t-5.5 25.5v45q43 10 101 20.5t132 10.5 q137 0 203.5 -57.5t66.5 -155.5q0 -63 -28.5 -108.5t-73.5 -73.5q59 -27 92 -73t33 -124q0 -129 -83 -187.5t-226 -58.5q-14 0 -41 1t-56.5 4t-58.5 7.5t-45 10.5q-29 8 -29 41zM467 27q0 12 9 26l817 1333h65q31 0 31 -26q0 -12 -8 -27l-817 -1333h-66q-31 0 -31 27z M1112 238v43q18 61 54 132t87 142.5t116.5 138t143.5 119.5h72q35 0 35 -34v-490h61q16 0 24.5 -10t8.5 -25v-51h-94v-198h-64q-35 0 -35 34v164h-376q-33 0 -33 35zM1212 289h309v418q-59 -43 -109 -96.5t-89 -108.5t-67.5 -110.5t-43.5 -102.5z" />
<glyph unicode="&#xbf;" horiz-adv-x="851" d="M96 -43q0 61 16.5 110.5t41 89.5t56.5 73.5t62 64.5q61 61 100.5 102t63 80t31.5 83t8 110h55q29 0 35 -25q4 -16 4 -49q0 -57 -13 -101t-40 -84t-63.5 -80t-83.5 -87q-41 -41 -71 -73t-48.5 -62.5t-27.5 -65.5t-9 -82q0 -109 57.5 -164t194.5 -55q92 0 162.5 17.5 t101.5 17.5q20 0 25.5 -10.5t5.5 -22.5v-53q-66 -23 -143.5 -39.5t-161.5 -16.5q-98 0 -166 25t-111 68t-62.5 101t-19.5 128zM412 983q0 53 23.5 74.5t72.5 21.5q51 0 74.5 -21.5t23.5 -74.5t-23.5 -73.5t-74.5 -20.5q-53 0 -74.5 20.5t-21.5 73.5z" />
<glyph unicode="&#xc0;" horiz-adv-x="1099" d="M63 31q41 248 98.5 468t117 399t115 313.5t93.5 207.5h99q14 0 23 -4t20 -24q39 -84 95 -223.5t113.5 -320.5t110.5 -396t90 -451h-94q-27 0 -33 31q-16 98 -36.5 199.5t-45.5 207.5h-565q-27 -111 -48 -219t-40 -219h-82q-35 0 -31 31zM289 543h514q-49 195 -113.5 386 t-142.5 371q-80 -182 -143.5 -370.5t-114.5 -386.5zM335 1780h138q16 0 23.5 -7.5t17.5 -23.5q25 -43 57.5 -101.5t56.5 -121.5h-76q-16 0 -25 7t-20 21z" />
<glyph unicode="&#xc1;" horiz-adv-x="1099" d="M63 31q41 248 98.5 468t117 399t115 313.5t93.5 207.5h99q14 0 23 -4t20 -24q39 -84 95 -223.5t113.5 -320.5t110.5 -396t90 -451h-94q-27 0 -33 31q-16 98 -36.5 199.5t-45.5 207.5h-565q-27 -111 -48 -219t-40 -219h-82q-35 0 -31 31zM289 543h514q-49 195 -113.5 386 t-142.5 371q-80 -182 -143.5 -370.5t-114.5 -386.5zM476.5 1533q-8.5 7 0.5 23q29 59 61.5 114.5t69.5 109.5h114q12 0 21.5 -9.5t-0.5 -25.5l-180 -219h-66q-12 0 -20.5 7z" />
<glyph unicode="&#xc2;" horiz-adv-x="1099" d="M63 31q41 248 98.5 468t117 399t115 313.5t93.5 207.5h99q14 0 23 -4t20 -24q39 -84 95 -223.5t113.5 -320.5t110.5 -396t90 -451h-94q-27 0 -33 31q-16 98 -36.5 199.5t-45.5 207.5h-565q-27 -111 -48 -219t-40 -219h-82q-35 0 -31 31zM289 543h514q-49 195 -113.5 386 t-142.5 371q-80 -182 -143.5 -370.5t-114.5 -386.5zM329.5 1534q-6.5 8 3.5 25q35 55 77 111t83 110h84q16 0 23.5 -2t17.5 -17q33 -43 73 -99t89 -136h-78q-16 0 -25.5 6t-21.5 22l-107 132l-131 -160h-67q-14 0 -20.5 8z" />
<glyph unicode="&#xc3;" horiz-adv-x="1099" d="M63 31q41 248 98.5 468t117 399t115 313.5t93.5 207.5h99q14 0 23 -4t20 -24q39 -84 95 -223.5t113.5 -320.5t110.5 -396t90 -451h-94q-27 0 -33 31q-16 98 -36.5 199.5t-45.5 207.5h-565q-27 -111 -48 -219t-40 -219h-82q-35 0 -31 31zM264 1575q0 100 36.5 145 t108.5 45q53 0 90 -22.5t72 -48.5q41 -31 64.5 -45.5t52.5 -14.5q23 0 35 11.5t18 30t7 41t1 44.5h59q16 0 20.5 -8t4.5 -18q0 -100 -37 -145.5t-108 -45.5q-53 0 -90 22.5t-72 49.5q-41 31 -64.5 45t-52.5 14q-23 0 -35 -12t-18 -30.5t-7 -41t-1 -43.5h-60q-16 0 -20 8.5 t-4 18.5zM289 543h514q-49 195 -113.5 386t-142.5 371q-80 -182 -143.5 -370.5t-114.5 -386.5z" />
<glyph unicode="&#xc4;" horiz-adv-x="1099" d="M63 31q41 248 98.5 468t117 399t115 313.5t93.5 207.5h99q14 0 23 -4t20 -24q39 -84 95 -223.5t113.5 -320.5t110.5 -396t90 -451h-94q-27 0 -33 31q-16 98 -36.5 199.5t-45.5 207.5h-565q-27 -111 -48 -219t-40 -219h-82q-35 0 -31 31zM289 543h514q-49 195 -113.5 386 t-142.5 371q-80 -182 -143.5 -370.5t-114.5 -386.5zM296 1655q0 45 19.5 63.5t62.5 18.5q41 0 61.5 -18.5t20.5 -63.5t-20.5 -63.5t-61.5 -18.5q-43 0 -62.5 18.5t-19.5 63.5zM636 1655q0 45 19.5 63.5t62.5 18.5q41 0 61.5 -18.5t20.5 -63.5t-20.5 -63.5t-61.5 -18.5 q-43 0 -62.5 18.5t-19.5 63.5z" />
<glyph unicode="&#xc5;" horiz-adv-x="1099" d="M63 31q41 248 98.5 468t117 399t115 313.5t93.5 207.5h99q14 0 23 -4t20 -24q39 -84 95 -223.5t113.5 -320.5t110.5 -396t90 -451h-94q-27 0 -33 31q-16 98 -36.5 199.5t-45.5 207.5h-565q-27 -111 -48 -219t-40 -219h-82q-35 0 -31 31zM289 543h514q-49 195 -113.5 386 t-142.5 371q-80 -182 -143.5 -370.5t-114.5 -386.5zM358 1677q0 84 47 133.5t143 49.5t143.5 -49.5t47.5 -133.5t-47.5 -133t-143.5 -49t-143 49t-47 133zM446 1677q0 -57 27.5 -80.5t74.5 -23.5t75 23.5t28 80.5t-28 81t-75 24t-74.5 -23.5t-27.5 -81.5z" />
<glyph unicode="&#xc6;" horiz-adv-x="1605" d="M35 31q76 238 166 446.5t183 383.5t183 315.5t164 242.5h733q31 0 31 -30v-76h-592v-547h512q31 0 31 -31v-76h-543v-553h586q31 0 31 -30v-76h-705q-31 0 -31 31v407h-481q-47 -111 -87 -219t-75 -219h-80q-14 0 -22 8t-4 23zM348 543h436v776q-127 -174 -235.5 -370.5 t-200.5 -405.5z" />
<glyph unicode="&#xc7;" horiz-adv-x="1030" d="M125 709q0 190 27.5 327.5t88 226.5t158 131t236.5 42q37 0 77 -3t77.5 -8.5t71.5 -12.5t57 -15q29 -10 28 -43v-60q-57 10 -139 20.5t-160 10.5q-111 0 -186.5 -30.5t-122.5 -101.5t-67.5 -186.5t-20.5 -287.5q0 -199 26.5 -322t78 -190.5t127 -91t173.5 -23.5 q100 0 168 14.5t101 14.5q35 0 34 -33v-55q-51 -18 -135 -34.5t-180 -16.5l-41 -97l31 -6q66 -14 92.5 -44t26.5 -79q0 -25 -7.5 -50t-27 -44.5t-54 -32t-88.5 -12.5q-59 0 -90 10q-20 6 -20 25v43h65q53 0 88 8t35 53q0 29 -19.5 39t-55.5 19l-21 4q-23 4 -33 11t-10 24 q0 16 14 51l35 82q-127 12 -211 63t-134 142.5t-71.5 221.5t-21.5 296z" />
<glyph unicode="&#xc8;" horiz-adv-x="1042" d="M158 31v1388h743q31 0 31 -30v-76h-656v-547h576q31 0 31 -31v-76h-607v-553h650q31 0 30 -30v-76h-768q-31 0 -30 31zM331 1780h138q16 0 23.5 -7.5t17.5 -23.5q25 -43 57.5 -101.5t56.5 -121.5h-76q-16 0 -25 7t-20 21z" />
<glyph unicode="&#xc9;" horiz-adv-x="1042" d="M158 31v1388h743q31 0 31 -30v-76h-656v-547h576q31 0 31 -31v-76h-607v-553h650q31 0 30 -30v-76h-768q-31 0 -30 31zM472.5 1533q-8.5 7 0.5 23q29 59 61.5 114.5t69.5 109.5h114q12 0 21.5 -9.5t-0.5 -25.5l-180 -219h-66q-12 0 -20.5 7z" />
<glyph unicode="&#xca;" horiz-adv-x="1042" d="M158 31v1388h743q31 0 31 -30v-76h-656v-547h576q31 0 31 -31v-76h-607v-553h650q31 0 30 -30v-76h-768q-31 0 -30 31zM325.5 1534q-6.5 8 3.5 25q35 55 77 111t83 110h84q16 0 23.5 -2t17.5 -17q33 -43 73 -99t89 -136h-78q-16 0 -25.5 6t-21.5 22l-107 132l-131 -160 h-67q-14 0 -20.5 8z" />
<glyph unicode="&#xcb;" horiz-adv-x="1042" d="M158 31v1388h743q31 0 31 -30v-76h-656v-547h576q31 0 31 -31v-76h-607v-553h650q31 0 30 -30v-76h-768q-31 0 -30 31zM292 1655q0 45 19.5 63.5t62.5 18.5q41 0 61.5 -18.5t20.5 -63.5t-20.5 -63.5t-61.5 -18.5q-43 0 -62.5 18.5t-19.5 63.5zM632 1655q0 45 19.5 63.5 t62.5 18.5q41 0 61.5 -18.5t20.5 -63.5t-20.5 -63.5t-61.5 -18.5q-43 0 -62.5 18.5t-19.5 63.5z" />
<glyph unicode="&#xcc;" horiz-adv-x="434" d="M8 1780h138q16 0 23.5 -7.5t17.5 -23.5q25 -43 57.5 -101.5t56.5 -121.5h-76q-16 0 -25 7t-20 21zM158 31v1388h88q31 0 30 -30v-1389h-88q-31 0 -30 31z" />
<glyph unicode="&#xcd;" horiz-adv-x="434" d="M149.5 1533q-8.5 7 0.5 23q29 59 61.5 114.5t69.5 109.5h114q12 0 21.5 -9.5t-0.5 -25.5l-180 -219h-66q-12 0 -20.5 7zM158 31v1388h88q31 0 30 -30v-1389h-88q-31 0 -30 31z" />
<glyph unicode="&#xce;" horiz-adv-x="434" d="M2.5 1534q-6.5 8 3.5 25q35 55 77 111t83 110h84q16 0 23.5 -2t17.5 -17q33 -43 73 -99t89 -136h-78q-16 0 -25.5 6t-21.5 22l-107 132l-131 -160h-67q-14 0 -20.5 8zM158 31v1388h88q31 0 30 -30v-1389h-88q-31 0 -30 31z" />
<glyph unicode="&#xcf;" horiz-adv-x="434" d="M-31 1655q0 45 19.5 63.5t62.5 18.5q41 0 61.5 -18.5t20.5 -63.5t-20.5 -63.5t-61.5 -18.5q-43 0 -62.5 18.5t-19.5 63.5zM158 31v1388h88q31 0 30 -30v-1389h-88q-31 0 -30 31zM309 1655q0 45 19.5 63.5t62.5 18.5q41 0 61.5 -18.5t20.5 -63.5t-20.5 -63.5t-61.5 -18.5 q-43 0 -62.5 18.5t-19.5 63.5z" />
<glyph unicode="&#xd0;" horiz-adv-x="1275" d="M47 713v67h166v615q39 6 91 12t109.5 11t116 8.5t107.5 3.5q141 0 239.5 -43.5t159 -132.5t88 -224t27.5 -321q0 -176 -27.5 -309.5t-90 -222.5t-162 -133t-242.5 -44h-385q-31 0 -31 31v651h-135q-31 0 -31 31zM332 106h274q98 0 177 23t132.5 88.5t82 183t28.5 308.5 q0 178 -21.5 295.5t-69.5 188.5t-125 100.5t-185 29.5q-86 0 -163 -5t-130 -15v-523h260q31 0 31 -30v-68h-291v-576z" />
<glyph unicode="&#xd1;" horiz-adv-x="1234" d="M158 31v1388h102q14 0 21.5 -7t17.5 -23q27 -45 75 -126t107.5 -183.5t127 -218.5t132 -230.5t122 -219t98.5 -184.5v1192h86q31 0 30 -30v-1389h-90q-23 0 -39 31q-37 70 -93 172t-121.5 219t-135.5 239.5t-132.5 231t-112.5 196t-79 132.5v-1221h-86q-31 0 -30 31z M332 1575q0 100 36.5 145t108.5 45q53 0 90 -22.5t72 -48.5q41 -31 64.5 -45.5t52.5 -14.5q23 0 35 11.5t18 30t7 41t1 44.5h59q16 0 20.5 -8t4.5 -18q0 -100 -37 -145.5t-108 -45.5q-53 0 -90 22.5t-72 49.5q-41 31 -64.5 45t-52.5 14q-23 0 -35 -12t-18 -30.5t-7 -41 t-1 -43.5h-60q-16 0 -20 8.5t-4 18.5z" />
<glyph unicode="&#xd2;" horiz-adv-x="1247" d="M125 709q0 219 36 360t101.5 223t157.5 114t203 32q113 0 205 -32t157.5 -114t101 -223t35.5 -360t-35.5 -360.5t-101 -223.5t-158 -113.5t-204.5 -31.5q-111 0 -203 31.5t-157.5 113.5t-101.5 223t-36 361zM250 709q0 -166 17.5 -283t60.5 -191.5t114.5 -109.5 t180.5 -35q106 0 177.5 35t116 109.5t62.5 191.5t18 283t-18 283.5t-61.5 191t-116 108.5t-178.5 35q-109 0 -180.5 -35t-114.5 -108.5t-60.5 -191t-17.5 -283.5zM409 1780h138q16 0 23.5 -7.5t17.5 -23.5q25 -43 57.5 -101.5t56.5 -121.5h-76q-16 0 -25 7t-20 21z" />
<glyph unicode="&#xd3;" horiz-adv-x="1247" d="M125 709q0 219 36 360t101.5 223t157.5 114t203 32q113 0 205 -32t157.5 -114t101 -223t35.5 -360t-35.5 -360.5t-101 -223.5t-158 -113.5t-204.5 -31.5q-111 0 -203 31.5t-157.5 113.5t-101.5 223t-36 361zM250 709q0 -166 17.5 -283t60.5 -191.5t114.5 -109.5 t180.5 -35q106 0 177.5 35t116 109.5t62.5 191.5t18 283t-18 283.5t-61.5 191t-116 108.5t-178.5 35q-109 0 -180.5 -35t-114.5 -108.5t-60.5 -191t-17.5 -283.5zM550.5 1533q-8.5 7 0.5 23q29 59 61.5 114.5t69.5 109.5h114q12 0 21.5 -9.5t-0.5 -25.5l-180 -219h-66 q-12 0 -20.5 7z" />
<glyph unicode="&#xd4;" horiz-adv-x="1247" d="M125 709q0 219 36 360t101.5 223t157.5 114t203 32q113 0 205 -32t157.5 -114t101 -223t35.5 -360t-35.5 -360.5t-101 -223.5t-158 -113.5t-204.5 -31.5q-111 0 -203 31.5t-157.5 113.5t-101.5 223t-36 361zM250 709q0 -166 17.5 -283t60.5 -191.5t114.5 -109.5 t180.5 -35q106 0 177.5 35t116 109.5t62.5 191.5t18 283t-18 283.5t-61.5 191t-116 108.5t-178.5 35q-109 0 -180.5 -35t-114.5 -108.5t-60.5 -191t-17.5 -283.5zM403.5 1534q-6.5 8 3.5 25q35 55 77 111t83 110h84q16 0 23.5 -2t17.5 -17q33 -43 73 -99t89 -136h-78 q-16 0 -25.5 6t-21.5 22l-107 132l-131 -160h-67q-14 0 -20.5 8z" />
<glyph unicode="&#xd5;" horiz-adv-x="1247" d="M125 709q0 219 36 360t101.5 223t157.5 114t203 32q113 0 205 -32t157.5 -114t101 -223t35.5 -360t-35.5 -360.5t-101 -223.5t-158 -113.5t-204.5 -31.5q-111 0 -203 31.5t-157.5 113.5t-101.5 223t-36 361zM250 709q0 -166 17.5 -283t60.5 -191.5t114.5 -109.5 t180.5 -35q106 0 177.5 35t116 109.5t62.5 191.5t18 283t-18 283.5t-61.5 191t-116 108.5t-178.5 35q-109 0 -180.5 -35t-114.5 -108.5t-60.5 -191t-17.5 -283.5zM338 1575q0 100 36.5 145t108.5 45q53 0 90 -22.5t72 -48.5q41 -31 64.5 -45.5t52.5 -14.5q23 0 35 11.5 t18 30t7 41t1 44.5h59q16 0 20.5 -8t4.5 -18q0 -100 -37 -145.5t-108 -45.5q-53 0 -90 22.5t-72 49.5q-41 31 -64.5 45t-52.5 14q-23 0 -35 -12t-18 -30.5t-7 -41t-1 -43.5h-60q-16 0 -20 8.5t-4 18.5z" />
<glyph unicode="&#xd6;" horiz-adv-x="1247" d="M125 709q0 219 36 360t101.5 223t157.5 114t203 32q113 0 205 -32t157.5 -114t101 -223t35.5 -360t-35.5 -360.5t-101 -223.5t-158 -113.5t-204.5 -31.5q-111 0 -203 31.5t-157.5 113.5t-101.5 223t-36 361zM250 709q0 -166 17.5 -283t60.5 -191.5t114.5 -109.5 t180.5 -35q106 0 177.5 35t116 109.5t62.5 191.5t18 283t-18 283.5t-61.5 191t-116 108.5t-178.5 35q-109 0 -180.5 -35t-114.5 -108.5t-60.5 -191t-17.5 -283.5zM370 1655q0 45 19.5 63.5t62.5 18.5q41 0 61.5 -18.5t20.5 -63.5t-20.5 -63.5t-61.5 -18.5q-43 0 -62.5 18.5 t-19.5 63.5zM710 1655q0 45 19.5 63.5t62.5 18.5q41 0 61.5 -18.5t20.5 -63.5t-20.5 -63.5t-61.5 -18.5q-43 0 -62.5 18.5t-19.5 63.5z" />
<glyph unicode="&#xd7;" d="M221 961l49 49q23 18 45 0l234 -236l256 256l49 -49q25 -23 0 -43l-233 -236l258 -258l-50 -49q-23 -18 -45 0l-235 238l-256 -256l-49 49q-20 20 0 43l233 233z" />
<glyph unicode="&#xd8;" horiz-adv-x="1247" d="M125 709q0 219 36 360t101.5 223t157.5 114t203 32q92 0 170.5 -20.5t142.5 -74.5l84 144h74q16 0 23 -11.5t-3 -29.5l-108 -184q55 -84 85.5 -218.5t30.5 -334.5q0 -219 -35.5 -360.5t-101 -223.5t-158 -113.5t-204.5 -31.5q-94 0 -173 21.5t-141 74.5l-86 -148h-67 q-20 0 -27.5 14.5t2.5 32.5l107 183q-53 86 -83 219t-30 332zM250 709q0 -145 12 -252t45 -183l567 965q-43 47 -104 67.5t-147 20.5q-109 0 -180.5 -35t-114.5 -108.5t-60.5 -191t-17.5 -283.5zM369 178q43 -47 105.5 -67.5t148.5 -20.5q106 0 177.5 35t116 109.5 t62.5 191.5t18 283q0 147 -14 253.5t-47 182.5z" />
<glyph unicode="&#xd9;" horiz-adv-x="1212" d="M152 481v938h88q31 0 30 -30v-908q0 -88 15.5 -159.5t54.5 -123t104.5 -79t163.5 -27.5q100 0 166 27.5t102.5 79t51 123t14.5 159.5v938h88q31 0 31 -30v-906q0 -143 -32 -239.5t-90 -154.5t-142 -82.5t-191 -24.5q-109 0 -192.5 24.5t-142 82.5t-89 154.5t-30.5 237.5z M393 1780h138q16 0 23.5 -7.5t17.5 -23.5q25 -43 57.5 -101.5t56.5 -121.5h-76q-16 0 -25 7t-20 21z" />
<glyph unicode="&#xda;" horiz-adv-x="1212" d="M152 481v938h88q31 0 30 -30v-908q0 -88 15.5 -159.5t54.5 -123t104.5 -79t163.5 -27.5q100 0 166 27.5t102.5 79t51 123t14.5 159.5v938h88q31 0 31 -30v-906q0 -143 -32 -239.5t-90 -154.5t-142 -82.5t-191 -24.5q-109 0 -192.5 24.5t-142 82.5t-89 154.5t-30.5 237.5z M534.5 1533q-8.5 7 0.5 23q29 59 61.5 114.5t69.5 109.5h114q12 0 21.5 -9.5t-0.5 -25.5l-180 -219h-66q-12 0 -20.5 7z" />
<glyph unicode="&#xdb;" horiz-adv-x="1212" d="M152 481v938h88q31 0 30 -30v-908q0 -88 15.5 -159.5t54.5 -123t104.5 -79t163.5 -27.5q100 0 166 27.5t102.5 79t51 123t14.5 159.5v938h88q31 0 31 -30v-906q0 -143 -32 -239.5t-90 -154.5t-142 -82.5t-191 -24.5q-109 0 -192.5 24.5t-142 82.5t-89 154.5t-30.5 237.5z M387.5 1534q-6.5 8 3.5 25q35 55 77 111t83 110h84q16 0 23.5 -2t17.5 -17q33 -43 73 -99t89 -136h-78q-16 0 -25.5 6t-21.5 22l-107 132l-131 -160h-67q-14 0 -20.5 8z" />
<glyph unicode="&#xdc;" horiz-adv-x="1212" d="M152 481v938h88q31 0 30 -30v-908q0 -88 15.5 -159.5t54.5 -123t104.5 -79t163.5 -27.5q100 0 166 27.5t102.5 79t51 123t14.5 159.5v938h88q31 0 31 -30v-906q0 -143 -32 -239.5t-90 -154.5t-142 -82.5t-191 -24.5q-109 0 -192.5 24.5t-142 82.5t-89 154.5t-30.5 237.5z M354 1655q0 45 19.5 63.5t62.5 18.5q41 0 61.5 -18.5t20.5 -63.5t-20.5 -63.5t-61.5 -18.5q-43 0 -62.5 18.5t-19.5 63.5zM694 1655q0 45 19.5 63.5t62.5 18.5q41 0 61.5 -18.5t20.5 -63.5t-20.5 -63.5t-61.5 -18.5q-43 0 -62.5 18.5t-19.5 63.5z" />
<glyph unicode="&#xdd;" horiz-adv-x="1042" d="M49 1419h98q18 0 25.5 -6t13.5 -24q25 -74 60 -165t78 -188.5t94 -195t106 -183.5q57 84 113.5 195t103.5 220.5t81 202.5t44 144h82q43 0 29 -45q-37 -111 -77 -211t-87 -198.5t-103.5 -200.5t-129.5 -215v-549h-88q-31 0 -31 31v518q-74 115 -133.5 221.5t-108.5 210.5 t-90 211.5t-80 226.5zM450.5 1533q-8.5 7 0.5 23q29 59 61.5 114.5t69.5 109.5h114q12 0 21.5 -9.5t-0.5 -25.5l-180 -219h-66q-12 0 -20.5 7z" />
<glyph unicode="&#xde;" horiz-adv-x="1122" d="M158 31v1388h88q31 0 30 -30v-232q66 10 137.5 16.5t139.5 6.5q244 0 355.5 -106.5t111.5 -342.5q0 -121 -29.5 -205t-84 -137t-132.5 -76.5t-174 -23.5q-63 0 -146 8t-178 27v-324h-88q-31 0 -30 31zM276 430q72 -16 150 -25.5t156 -9.5q80 0 139 16.5t99 55.5 t59.5 103.5t19.5 160.5q0 109 -23.5 176.5t-67.5 104.5t-108.5 49t-144.5 12q-92 0 -161.5 -6t-117.5 -16v-621z" />
<glyph unicode="&#xdf;" horiz-adv-x="1073" d="M139 31v1085q0 70 16.5 137.5t60.5 120.5t119 85t191 32q74 0 141.5 -13.5t119 -46t82 -88t30.5 -141.5q0 -45 -7 -80t-24.5 -65.5t-45 -60t-68.5 -66.5q-43 -37 -70 -61.5t-41 -42t-19.5 -34t-5.5 -36.5q0 -25 8.5 -43.5t30 -37t58.5 -42t96 -55.5q39 -23 71.5 -49.5 t57.5 -62.5t38 -81t13 -104q0 -147 -88 -221t-233 -74q-57 0 -109.5 7t-81.5 19q-27 10 -26 39v55q41 -8 95.5 -15t117.5 -7q100 0 155.5 47t55.5 152q0 88 -40 132t-96 77q-66 39 -110.5 66.5t-72.5 55t-39 59.5t-11 81q0 37 11 66.5t32.5 57t51.5 54t67 57.5 q35 31 57.5 54.5t34.5 46t17 48t5 58.5q0 61 -22.5 98t-58 57.5t-82 27.5t-95.5 7q-154 0 -213 -69.5t-59 -204.5v-1112h-84q-31 0 -31 31z" />
<glyph unicode="&#xe0;" horiz-adv-x="991" d="M92 303q0 174 99.5 250t285.5 76h268v80q0 68 -14 114.5t-48 74.5t-88 40t-134 12q-94 0 -169 -12t-102 -12q-33 0 -32 35v49q80 23 166 31t159 8q113 0 186.5 -26t115.5 -72t58.5 -108.5t16.5 -137.5v-705h-76q-31 0 -30 31l-4 82q-25 -25 -60 -48.5t-77 -42t-90 -30.5 t-101 -12q-170 0 -250 86t-80 237zM201 305q0 -125 63.5 -177t169.5 -52q104 0 181 44t130 97v318h-272q-80 0 -133 -18.5t-84 -50.5t-43 -74t-12 -87zM285 1450h125q29 0 41 -31q27 -57 51 -114.5t53 -126.5h-70q-29 0 -45 28z" />
<glyph unicode="&#xe1;" horiz-adv-x="991" d="M92 303q0 174 99.5 250t285.5 76h268v80q0 68 -14 114.5t-48 74.5t-88 40t-134 12q-94 0 -169 -12t-102 -12q-33 0 -32 35v49q80 23 166 31t159 8q113 0 186.5 -26t115.5 -72t58.5 -108.5t16.5 -137.5v-705h-76q-31 0 -30 31l-4 82q-25 -25 -60 -48.5t-77 -42t-90 -30.5 t-101 -12q-170 0 -250 86t-80 237zM201 305q0 -125 63.5 -177t169.5 -52q104 0 181 44t130 97v318h-272q-80 0 -133 -18.5t-84 -50.5t-43 -74t-12 -87zM426 1186q-6 8 0 22q29 66 58.5 124.5t60.5 117.5h108q16 0 23.5 -9t-2.5 -26l-164 -237h-64q-14 0 -20 8z" />
<glyph unicode="&#xe2;" horiz-adv-x="991" d="M92 303q0 174 99.5 250t285.5 76h268v80q0 68 -14 114.5t-48 74.5t-88 40t-134 12q-94 0 -169 -12t-102 -12q-33 0 -32 35v49q80 23 166 31t159 8q113 0 186.5 -26t115.5 -72t58.5 -108.5t16.5 -137.5v-705h-76q-31 0 -30 31l-4 82q-25 -25 -60 -48.5t-77 -42t-90 -30.5 t-101 -12q-170 0 -250 86t-80 237zM201 305q0 -125 63.5 -177t169.5 -52q104 0 181 44t130 97v318h-272q-80 0 -133 -18.5t-84 -50.5t-43 -74t-12 -87zM275.5 1185q-5.5 7 5.5 23q35 57 68.5 112.5t86.5 129.5h76q16 0 23.5 -2t17.5 -16q35 -51 76 -116t82 -138h-72 q-27 0 -47 28l-105 152l-125 -180h-67q-14 0 -19.5 7z" />
<glyph unicode="&#xe3;" horiz-adv-x="991" d="M92 303q0 174 99.5 250t285.5 76h268v80q0 68 -14 114.5t-48 74.5t-88 40t-134 12q-94 0 -169 -12t-102 -12q-33 0 -32 35v49q80 23 166 31t159 8q113 0 186.5 -26t115.5 -72t58.5 -108.5t16.5 -137.5v-705h-76q-31 0 -30 31l-4 82q-25 -25 -60 -48.5t-77 -42t-90 -30.5 t-101 -12q-170 0 -250 86t-80 237zM201 305q0 -125 63.5 -177t169.5 -52q104 0 181 44t130 97v318h-272q-80 0 -133 -18.5t-84 -50.5t-43 -74t-12 -87zM203 1225q0 100 36.5 145t108.5 45q53 0 90 -22.5t72 -49.5q41 -31 64.5 -45t52.5 -14q23 0 35 11.5t18 29.5t7 41t1 45 h59q16 0 20.5 -8.5t4.5 -18.5q0 -100 -37 -145t-108 -45q-53 0 -90 22.5t-72 49.5q-41 31 -64.5 45t-52.5 14q-23 0 -35 -12.5t-18 -30.5t-7 -40.5t-1 -43.5h-60q-16 0 -20 8t-4 19z" />
<glyph unicode="&#xe4;" horiz-adv-x="991" d="M92 303q0 174 99.5 250t285.5 76h268v80q0 68 -14 114.5t-48 74.5t-88 40t-134 12q-94 0 -169 -12t-102 -12q-33 0 -32 35v49q80 23 166 31t159 8q113 0 186.5 -26t115.5 -72t58.5 -108.5t16.5 -137.5v-705h-76q-31 0 -30 31l-4 82q-25 -25 -60 -48.5t-77 -42t-90 -30.5 t-101 -12q-170 0 -250 86t-80 237zM201 305q0 -125 63.5 -177t169.5 -52q104 0 181 44t130 97v318h-272q-80 0 -133 -18.5t-84 -50.5t-43 -74t-12 -87zM235 1313q0 45 19.5 63.5t62.5 18.5q41 0 61.5 -18.5t20.5 -63.5t-20.5 -63.5t-61.5 -18.5q-43 0 -62.5 18.5t-19.5 63.5 zM575 1313q0 45 19.5 63.5t62.5 18.5q41 0 61.5 -18.5t20.5 -63.5t-20.5 -63.5t-61.5 -18.5q-43 0 -62.5 18.5t-19.5 63.5z" />
<glyph unicode="&#xe5;" horiz-adv-x="991" d="M92 303q0 174 99.5 250t285.5 76h268v80q0 68 -14 114.5t-48 74.5t-88 40t-134 12q-94 0 -169 -12t-102 -12q-33 0 -32 35v49q80 23 166 31t159 8q113 0 186.5 -26t115.5 -72t58.5 -108.5t16.5 -137.5v-705h-76q-31 0 -30 31l-4 82q-25 -25 -60 -48.5t-77 -42t-90 -30.5 t-101 -12q-170 0 -250 86t-80 237zM201 305q0 -125 63.5 -177t169.5 -52q104 0 181 44t130 97v318h-272q-80 0 -133 -18.5t-84 -50.5t-43 -74t-12 -87zM297 1354q0 84 47 133t143 49t143.5 -49t47.5 -133t-47.5 -133.5t-143.5 -49.5t-143 49.5t-47 133.5zM385 1354 q0 -57 27.5 -81t74.5 -24t75 23.5t28 81.5q0 57 -28 80.5t-75 23.5t-74.5 -23.5t-27.5 -80.5z" />
<glyph unicode="&#xe6;" horiz-adv-x="1570" d="M104 291q0 172 85 247.5t282 75.5h256v93q0 131 -59.5 187t-208.5 56q-82 0 -156 -12t-100 -12q-33 0 -33 35v49q80 23 164 31t147 8q135 0 210 -45.5t106 -120.5q49 90 124.5 131t180.5 41q111 0 180.5 -34t109.5 -92.5t55 -138t15 -172.5q0 -41 -4 -81.5t-10 -65.5 h-610q6 -102 16 -176t42 -121t91.5 -69.5t161.5 -22.5q98 0 157.5 11t84.5 11q18 0 25 -10t7 -20v-54q-45 -16 -126 -27t-167 -11q-123 0 -202.5 31.5t-126.5 105.5q-59 -53 -146.5 -96t-210.5 -43q-156 0 -248 76.5t-92 234.5zM213 293q0 -61 19.5 -103.5t52 -68t78 -35.5 t98.5 -10q100 0 174 41t127 88q-20 59 -27.5 133t-7.5 172v12h-260q-86 0 -137 -20.5t-77 -53t-33 -73.5t-7 -82zM838 567h510q2 14 2 27.5v26.5q0 82 -10.5 145t-38 104t-75.5 62.5t-124 21.5q-80 0 -129 -28.5t-79 -80.5t-42 -123t-14 -155z" />
<glyph unicode="&#xe7;" horiz-adv-x="845" d="M113 510q0 287 100 413t297 126q31 0 66.5 -3.5t67.5 -7.5t57.5 -9t37.5 -11q27 -10 27 -37v-57q-66 10 -124 17t-118 7q-74 0 -129 -21.5t-92 -70.5t-55.5 -132t-18.5 -206q0 -135 21.5 -220t60.5 -133t94.5 -65.5t120.5 -17.5q74 0 132.5 11t82.5 11q18 0 25.5 -10 t7.5 -20v-54q-41 -16 -110.5 -26t-131.5 -12l-40 -97l30 -6q66 -14 92.5 -44t26.5 -79q0 -25 -7 -50t-26.5 -44.5t-54.5 -32t-88 -12.5q-59 0 -90 10q-20 6 -21 25v43h66q53 0 88 8t35 53q0 29 -19.5 39t-56.5 19l-21 4q-23 4 -33 11t-10 24q0 16 15 51l33 82q-96 8 -161 50 t-104 109.5t-56 160.5t-17 204z" />
<glyph unicode="&#xe8;" horiz-adv-x="1001" d="M113 510q0 150 26.5 253t78.5 167.5t129 94.5t177 30q113 0 185.5 -34t112.5 -92.5t55.5 -138t15.5 -172.5q0 -41 -4 -81.5t-10 -65.5h-652q6 -104 22.5 -178t54.5 -121t103.5 -68.5t167.5 -21.5q100 0 161 11t85 11q18 0 25.5 -10t7.5 -20v-54q-45 -16 -126 -26 t-171 -12q-115 0 -199 27.5t-138 90t-80.5 164t-26.5 246.5zM227 567h551q2 14 2 27.5v26.5q0 82 -10 145t-39 104t-78 62.5t-129 21.5q-86 0 -142 -28.5t-90 -80.5t-48.5 -123t-16.5 -155zM301 1450h125q29 0 41 -31q27 -57 51 -114.5t53 -126.5h-70q-29 0 -45 28z" />
<glyph unicode="&#xe9;" horiz-adv-x="1001" d="M113 510q0 150 26.5 253t78.5 167.5t129 94.5t177 30q113 0 185.5 -34t112.5 -92.5t55.5 -138t15.5 -172.5q0 -41 -4 -81.5t-10 -65.5h-652q6 -104 22.5 -178t54.5 -121t103.5 -68.5t167.5 -21.5q100 0 161 11t85 11q18 0 25.5 -10t7.5 -20v-54q-45 -16 -126 -26 t-171 -12q-115 0 -199 27.5t-138 90t-80.5 164t-26.5 246.5zM227 567h551q2 14 2 27.5v26.5q0 82 -10 145t-39 104t-78 62.5t-129 21.5q-86 0 -142 -28.5t-90 -80.5t-48.5 -123t-16.5 -155zM442 1186q-6 8 0 22q29 66 58.5 124.5t60.5 117.5h108q16 0 23.5 -9t-2.5 -26 l-164 -237h-64q-14 0 -20 8z" />
<glyph unicode="&#xea;" horiz-adv-x="1001" d="M113 510q0 150 26.5 253t78.5 167.5t129 94.5t177 30q113 0 185.5 -34t112.5 -92.5t55.5 -138t15.5 -172.5q0 -41 -4 -81.5t-10 -65.5h-652q6 -104 22.5 -178t54.5 -121t103.5 -68.5t167.5 -21.5q100 0 161 11t85 11q18 0 25.5 -10t7.5 -20v-54q-45 -16 -126 -26 t-171 -12q-115 0 -199 27.5t-138 90t-80.5 164t-26.5 246.5zM227 567h551q2 14 2 27.5v26.5q0 82 -10 145t-39 104t-78 62.5t-129 21.5q-86 0 -142 -28.5t-90 -80.5t-48.5 -123t-16.5 -155zM291.5 1185q-5.5 7 5.5 23q35 57 68.5 112.5t86.5 129.5h76q16 0 23.5 -2t17.5 -16 q35 -51 76 -116t82 -138h-72q-27 0 -47 28l-105 152l-125 -180h-67q-14 0 -19.5 7z" />
<glyph unicode="&#xeb;" horiz-adv-x="1001" d="M113 510q0 150 26.5 253t78.5 167.5t129 94.5t177 30q113 0 185.5 -34t112.5 -92.5t55.5 -138t15.5 -172.5q0 -41 -4 -81.5t-10 -65.5h-652q6 -104 22.5 -178t54.5 -121t103.5 -68.5t167.5 -21.5q100 0 161 11t85 11q18 0 25.5 -10t7.5 -20v-54q-45 -16 -126 -26 t-171 -12q-115 0 -199 27.5t-138 90t-80.5 164t-26.5 246.5zM227 567h551q2 14 2 27.5v26.5q0 82 -10 145t-39 104t-78 62.5t-129 21.5q-86 0 -142 -28.5t-90 -80.5t-48.5 -123t-16.5 -155zM251 1313q0 45 19.5 63.5t62.5 18.5q41 0 61.5 -18.5t20.5 -63.5t-20.5 -63.5 t-61.5 -18.5q-43 0 -62.5 18.5t-19.5 63.5zM591 1313q0 45 19.5 63.5t62.5 18.5q41 0 61.5 -18.5t20.5 -63.5t-20.5 -63.5t-61.5 -18.5q-43 0 -62.5 18.5t-19.5 63.5z" />
<glyph unicode="&#xec;" horiz-adv-x="401" d="M2 1450h125q29 0 41 -31q27 -57 51 -114.5t53 -126.5h-70q-29 0 -45 28zM143 31v999h84q31 0 31 -31v-999h-84q-31 0 -31 31z" />
<glyph unicode="&#xed;" horiz-adv-x="401" d="M143 31v999h84q31 0 31 -31v-999h-84q-31 0 -31 31zM143 1186q-6 8 0 22q29 66 58.5 124.5t60.5 117.5h108q16 0 23.5 -9t-2.5 -26l-164 -237h-64q-14 0 -20 8z" />
<glyph unicode="&#xee;" horiz-adv-x="401" d="M-7.5 1185q-5.5 7 5.5 23q35 57 68.5 112.5t86.5 129.5h76q16 0 23.5 -2t17.5 -16q35 -51 76 -116t82 -138h-72q-27 0 -47 28l-105 152l-125 -180h-67q-14 0 -19.5 7zM143 31v999h84q31 0 31 -31v-999h-84q-31 0 -31 31z" />
<glyph unicode="&#xef;" horiz-adv-x="401" d="M-48 1313q0 45 19.5 63.5t62.5 18.5q41 0 61.5 -18.5t20.5 -63.5t-20.5 -63.5t-61.5 -18.5q-43 0 -62.5 18.5t-19.5 63.5zM143 31v999h84q31 0 31 -31v-999h-84q-31 0 -31 31zM292 1313q0 45 19.5 63.5t62.5 18.5q41 0 61.5 -18.5t20.5 -63.5t-20.5 -63.5t-61.5 -18.5 q-43 0 -62.5 18.5t-19.5 63.5z" />
<glyph unicode="&#xf0;" horiz-adv-x="1052" d="M113 508q0 250 94 383t299 133q78 0 143.5 -18.5t110.5 -40.5q-29 78 -81 155.5t-106 134.5l-202 -77q-33 -12 -43 16l-19 51l199 76q-76 74 -168 149h115q16 0 25 -3t32 -21q27 -23 50.5 -43.5t45.5 -42.5l211 82q33 12 43 -17l19 -51l-207 -80q59 -66 107 -140.5 t83 -163.5t54.5 -197.5t19.5 -239.5q0 -109 -14.5 -212t-57.5 -184t-123.5 -131.5t-216.5 -50.5q-135 0 -216 50.5t-125 127t-58 171t-14 184.5zM229 508q0 -78 10.5 -155t42 -138t90 -100t154.5 -39q111 0 170.5 48t88 119.5t33.5 154.5t5 155q0 86 -7 163t-23 136 q-70 39 -131.5 55.5t-147.5 16.5q-84 0 -139.5 -32t-87 -87t-45 -131t-13.5 -166z" />
<glyph unicode="&#xf1;" horiz-adv-x="1048" d="M139 31v999h76q31 0 31 -31l4 -81q20 23 53 47t76 43.5t96 33t117 13.5q150 0 238 -85t88 -274v-696h-84q-31 0 -31 31v661q0 141 -64.5 201.5t-171.5 60.5q-55 0 -103 -13t-88 -34.5t-71 -47t-51 -48.5v-811h-84q-31 0 -31 31zM244 1225q0 100 36.5 145t108.5 45 q53 0 90 -22.5t72 -49.5q41 -31 64.5 -45t52.5 -14q23 0 35 11.5t18 29.5t7 41t1 45h59q16 0 20.5 -8.5t4.5 -18.5q0 -100 -37 -145t-108 -45q-53 0 -90 22.5t-72 49.5q-41 31 -64.5 45t-52.5 14q-23 0 -35 -12.5t-18 -30.5t-7 -40.5t-1 -43.5h-60q-16 0 -20 8t-4 19z" />
<glyph unicode="&#xf2;" horiz-adv-x="1060" d="M113 516q0 274 98 406.5t319 132.5t319.5 -132t98.5 -407q0 -276 -98 -408.5t-320 -132.5q-221 0 -319 132.5t-98 408.5zM229 516q0 -121 18.5 -205t56.5 -136t94 -75.5t132 -23.5t132.5 23.5t94.5 75.5t56 136t18 205t-18 204t-56 135t-94.5 75.5t-132.5 23.5 t-132 -23.5t-94 -75.5t-56.5 -135t-18.5 -204zM328 1450h125q29 0 41 -31q27 -57 51 -114.5t53 -126.5h-70q-29 0 -45 28z" />
<glyph unicode="&#xf3;" horiz-adv-x="1060" d="M113 516q0 274 98 406.5t319 132.5t319.5 -132t98.5 -407q0 -276 -98 -408.5t-320 -132.5q-221 0 -319 132.5t-98 408.5zM229 516q0 -121 18.5 -205t56.5 -136t94 -75.5t132 -23.5t132.5 23.5t94.5 75.5t56 136t18 205t-18 204t-56 135t-94.5 75.5t-132.5 23.5 t-132 -23.5t-94 -75.5t-56.5 -135t-18.5 -204zM469 1186q-6 8 0 22q29 66 58.5 124.5t60.5 117.5h108q16 0 23.5 -9t-2.5 -26l-164 -237h-64q-14 0 -20 8z" />
<glyph unicode="&#xf4;" horiz-adv-x="1060" d="M113 516q0 274 98 406.5t319 132.5t319.5 -132t98.5 -407q0 -276 -98 -408.5t-320 -132.5q-221 0 -319 132.5t-98 408.5zM229 516q0 -121 18.5 -205t56.5 -136t94 -75.5t132 -23.5t132.5 23.5t94.5 75.5t56 136t18 205t-18 204t-56 135t-94.5 75.5t-132.5 23.5 t-132 -23.5t-94 -75.5t-56.5 -135t-18.5 -204zM318.5 1185q-5.5 7 5.5 23q35 57 68.5 112.5t86.5 129.5h76q16 0 23.5 -2t17.5 -16q35 -51 76 -116t82 -138h-72q-27 0 -47 28l-105 152l-125 -180h-67q-14 0 -19.5 7z" />
<glyph unicode="&#xf5;" horiz-adv-x="1060" d="M113 516q0 274 98 406.5t319 132.5t319.5 -132t98.5 -407q0 -276 -98 -408.5t-320 -132.5q-221 0 -319 132.5t-98 408.5zM229 516q0 -121 18.5 -205t56.5 -136t94 -75.5t132 -23.5t132.5 23.5t94.5 75.5t56 136t18 205t-18 204t-56 135t-94.5 75.5t-132.5 23.5 t-132 -23.5t-94 -75.5t-56.5 -135t-18.5 -204zM246 1225q0 100 36.5 145t108.5 45q53 0 90 -22.5t72 -49.5q41 -31 64.5 -45t52.5 -14q23 0 35 11.5t18 29.5t7 41t1 45h59q16 0 20.5 -8.5t4.5 -18.5q0 -100 -37 -145t-108 -45q-53 0 -90 22.5t-72 49.5q-41 31 -64.5 45 t-52.5 14q-23 0 -35 -12.5t-18 -30.5t-7 -40.5t-1 -43.5h-60q-16 0 -20 8t-4 19z" />
<glyph unicode="&#xf6;" horiz-adv-x="1060" d="M113 516q0 274 98 406.5t319 132.5t319.5 -132t98.5 -407q0 -276 -98 -408.5t-320 -132.5q-221 0 -319 132.5t-98 408.5zM229 516q0 -121 18.5 -205t56.5 -136t94 -75.5t132 -23.5t132.5 23.5t94.5 75.5t56 136t18 205t-18 204t-56 135t-94.5 75.5t-132.5 23.5 t-132 -23.5t-94 -75.5t-56.5 -135t-18.5 -204zM278 1313q0 45 19.5 63.5t62.5 18.5q41 0 61.5 -18.5t20.5 -63.5t-20.5 -63.5t-61.5 -18.5q-43 0 -62.5 18.5t-19.5 63.5zM618 1313q0 45 19.5 63.5t62.5 18.5q41 0 61.5 -18.5t20.5 -63.5t-20.5 -63.5t-61.5 -18.5 q-43 0 -62.5 18.5t-19.5 63.5z" />
<glyph unicode="&#xf7;" d="M154 686v68h761q31 0 31 -31v-68h-762q-31 0 -30 31zM457 381q0 49 22.5 70.5t69.5 21.5t70.5 -21.5t23.5 -70.5t-23.5 -69.5t-70.5 -20.5q-49 0 -70.5 20.5t-21.5 69.5zM457 1024q0 49 22.5 70.5t69.5 21.5t70.5 -21.5t23.5 -70.5t-23.5 -69.5t-70.5 -20.5 q-49 0 -70.5 20.5t-21.5 69.5z" />
<glyph unicode="&#xf8;" horiz-adv-x="1060" d="M75 -60.5q-5 11.5 5 25.5l117 164q-84 129 -84 387q0 274 98 406.5t319 132.5q174 0 271 -82l92 129h70q14 0 19 -11.5t-5 -25.5l-115 -162q45 -66 65.5 -162t20.5 -225q0 -276 -98 -408.5t-320 -132.5q-176 0 -272 82l-92 -129h-72q-14 0 -19 11.5zM229 516 q0 -186 41 -283l465 648q-72 74 -205 73q-76 0 -132 -23.5t-94 -75.5t-56.5 -135t-18.5 -204zM324 150q71 -74 206 -74q76 0 132.5 23.5t94.5 75.5t56 136t18 205q0 182 -43 285z" />
<glyph unicode="&#xf9;" horiz-adv-x="1048" d="M131 334v696h84q31 0 31 -31v-661q0 -141 64.5 -201.5t170.5 -60.5q55 0 103.5 13t88.5 34.5t70.5 47.5t51.5 48v811h84q31 0 30 -31v-999h-75q-31 0 -31 31l-4 82q-23 -23 -54.5 -47.5t-74.5 -45t-96.5 -33t-116.5 -12.5q-150 0 -238 85t-88 274zM318 1450h125 q29 0 41 -31q27 -57 51 -114.5t53 -126.5h-70q-29 0 -45 28z" />
<glyph unicode="&#xfa;" horiz-adv-x="1048" d="M131 334v696h84q31 0 31 -31v-661q0 -141 64.5 -201.5t170.5 -60.5q55 0 103.5 13t88.5 34.5t70.5 47.5t51.5 48v811h84q31 0 30 -31v-999h-75q-31 0 -31 31l-4 82q-23 -23 -54.5 -47.5t-74.5 -45t-96.5 -33t-116.5 -12.5q-150 0 -238 85t-88 274zM459 1186q-6 8 0 22 q29 66 58.5 124.5t60.5 117.5h108q16 0 23.5 -9t-2.5 -26l-164 -237h-64q-14 0 -20 8z" />
<glyph unicode="&#xfb;" horiz-adv-x="1048" d="M131 334v696h84q31 0 31 -31v-661q0 -141 64.5 -201.5t170.5 -60.5q55 0 103.5 13t88.5 34.5t70.5 47.5t51.5 48v811h84q31 0 30 -31v-999h-75q-31 0 -31 31l-4 82q-23 -23 -54.5 -47.5t-74.5 -45t-96.5 -33t-116.5 -12.5q-150 0 -238 85t-88 274zM308.5 1185 q-5.5 7 5.5 23q35 57 68.5 112.5t86.5 129.5h76q16 0 23.5 -2t17.5 -16q35 -51 76 -116t82 -138h-72q-27 0 -47 28l-105 152l-125 -180h-67q-14 0 -19.5 7z" />
<glyph unicode="&#xfc;" horiz-adv-x="1048" d="M131 334v696h84q31 0 31 -31v-661q0 -141 64.5 -201.5t170.5 -60.5q55 0 103.5 13t88.5 34.5t70.5 47.5t51.5 48v811h84q31 0 30 -31v-999h-75q-31 0 -31 31l-4 82q-23 -23 -54.5 -47.5t-74.5 -45t-96.5 -33t-116.5 -12.5q-150 0 -238 85t-88 274zM268 1313 q0 45 19.5 63.5t62.5 18.5q41 0 61.5 -18.5t20.5 -63.5t-20.5 -63.5t-61.5 -18.5q-43 0 -62.5 18.5t-19.5 63.5zM608 1313q0 45 19.5 63.5t62.5 18.5q41 0 61.5 -18.5t20.5 -63.5t-20.5 -63.5t-61.5 -18.5q-43 0 -62.5 18.5t-19.5 63.5z" />
<glyph unicode="&#xfd;" horiz-adv-x="933" d="M57 1030h88q20 0 26.5 -7t8.5 -24q16 -117 48 -234.5t74 -230t90.5 -218t99.5 -197.5q98 203 161.5 428t100.5 483h82q18 0 24 -8t4 -23q-35 -244 -109.5 -483.5t-185.5 -462.5q-49 -98 -94 -174t-91 -128t-98.5 -79.5t-115.5 -27.5q-47 0 -74 12q-20 12 -20 37v49 q20 -2 36.5 -2h32.5q47 0 84 16.5t69 50t63.5 85t68.5 120.5q-66 113 -126 240t-110.5 259t-86 264t-50.5 255zM406 1186q-6 8 0 22q29 66 58.5 124.5t60.5 117.5h108q16 0 23.5 -9t-2.5 -26l-164 -237h-64q-14 0 -20 8z" />
<glyph unicode="&#xfe;" horiz-adv-x="1044" d="M139 -317v1787h64q29 0 40 -10t11 -41v-461q55 39 128 68t177 29q186 0 279.5 -133.5t93.5 -393.5q0 -131 -20.5 -232t-68.5 -170t-127 -104.5t-196 -35.5q-102 0 -166.5 22.5t-99.5 38.5v-395h-84q-31 0 -31 31zM254 145q53 -25 113.5 -42t138.5 -17t136 20.5t96 70.5 t57.5 133t19.5 210q0 233 -69.5 333.5t-206.5 100.5q-96 0 -165 -30.5t-120 -69.5v-709z" />
<glyph unicode="&#xff;" horiz-adv-x="933" d="M57 1030h88q20 0 26.5 -7t8.5 -24q16 -117 48 -234.5t74 -230t90.5 -218t99.5 -197.5q98 203 161.5 428t100.5 483h82q18 0 24 -8t4 -23q-35 -244 -109.5 -483.5t-185.5 -462.5q-49 -98 -94 -174t-91 -128t-98.5 -79.5t-115.5 -27.5q-47 0 -74 12q-20 12 -20 37v49 q20 -2 36.5 -2h32.5q47 0 84 16.5t69 50t63.5 85t68.5 120.5q-66 113 -126 240t-110.5 259t-86 264t-50.5 255zM215 1313q0 45 19.5 63.5t62.5 18.5q41 0 61.5 -18.5t20.5 -63.5t-20.5 -63.5t-61.5 -18.5q-43 0 -62.5 18.5t-19.5 63.5zM555 1313q0 45 19.5 63.5t62.5 18.5 q41 0 61.5 -18.5t20.5 -63.5t-20.5 -63.5t-61.5 -18.5q-43 0 -62.5 18.5t-19.5 63.5z" />
<glyph unicode="&#x152;" horiz-adv-x="1656" d="M125 709q0 221 44 363t118.5 223t174 112t210.5 31q86 0 164 -19h680q31 0 30 -30v-76h-592v-547h512q31 0 31 -31v-76h-543v-553h586q31 0 31 -30v-76h-740q-43 -10 -91 -14t-91 -4q-115 0 -211 27.5t-165.5 105.5t-108.5 220t-39 374zM250 709q0 -166 20.5 -283 t67.5 -190.5t123.5 -108.5t187.5 -35q47 0 98.5 5t88.5 20v1183q-68 27 -164 27q-109 0 -187.5 -33.5t-131 -107.5t-78 -191.5t-25.5 -285.5z" />
<glyph unicode="&#x153;" horiz-adv-x="1650" d="M113 516q0 274 97 406.5t312 132.5q256 0 338 -207q47 111 128 159t194 48q111 0 180.5 -34t109 -92.5t55 -138t15.5 -172.5q0 -41 -4 -81.5t-10 -65.5h-610q6 -102 16 -176t42 -121t91 -69.5t162 -22.5q98 0 157.5 11t83.5 11q18 0 25.5 -10t7.5 -20v-54 q-45 -16 -126 -27t-167 -11q-143 0 -227 45t-125 147q-43 -100 -125 -149.5t-211 -49.5q-215 0 -312 132.5t-97 408.5zM229 516q0 -121 18.5 -205t54.5 -136t91 -75.5t129 -23.5q72 0 125 23.5t89 75.5t53.5 136t17.5 205t-17.5 204t-53.5 135t-89 75.5t-125 23.5 q-74 0 -129 -23.5t-91 -75.5t-54.5 -135t-18.5 -204zM918 567h509q2 14 2.5 27.5t0.5 26.5q0 82 -10.5 145t-38 104t-76 62.5t-123.5 21.5q-80 0 -129 -28.5t-79 -80.5t-42 -123t-14 -155z" />
<glyph unicode="&#x178;" horiz-adv-x="1042" d="M49 1419h98q18 0 25.5 -6t13.5 -24q25 -74 60 -165t78 -188.5t94 -195t106 -183.5q57 84 113.5 195t103.5 220.5t81 202.5t44 144h82q43 0 29 -45q-37 -111 -77 -211t-87 -198.5t-103.5 -200.5t-129.5 -215v-549h-88q-31 0 -31 31v518q-74 115 -133.5 221.5t-108.5 210.5 t-90 211.5t-80 226.5zM270 1655q0 45 19.5 63.5t62.5 18.5q41 0 61.5 -18.5t20.5 -63.5t-20.5 -63.5t-61.5 -18.5q-43 0 -62.5 18.5t-19.5 63.5zM610 1655q0 45 19.5 63.5t62.5 18.5q41 0 61.5 -18.5t20.5 -63.5t-20.5 -63.5t-61.5 -18.5q-43 0 -62.5 18.5t-19.5 63.5z" />
<glyph unicode="&#x2c6;" horiz-adv-x="884" d="M230.5 1185q-5.5 7 5.5 23q35 57 68.5 112.5t86.5 129.5h76q16 0 23.5 -2t17.5 -16q35 -51 76 -116t82 -138h-72q-27 0 -47 28l-105 152l-125 -180h-67q-14 0 -19.5 7z" />
<glyph unicode="&#x2dc;" horiz-adv-x="884" d="M158 1225q0 100 36.5 145t108.5 45q53 0 90 -22.5t72 -49.5q41 -31 64.5 -45t52.5 -14q23 0 35 11.5t18 29.5t7 41t1 45h59q16 0 20.5 -8.5t4.5 -18.5q0 -100 -37 -145t-108 -45q-53 0 -90 22.5t-72 49.5q-41 31 -64.5 45t-52.5 14q-23 0 -35 -12.5t-18 -30.5t-7 -40.5 t-1 -43.5h-60q-16 0 -20 8t-4 19z" />
<glyph unicode="&#x2000;" horiz-adv-x="930" />
<glyph unicode="&#x2001;" horiz-adv-x="1860" />
<glyph unicode="&#x2002;" horiz-adv-x="930" />
<glyph unicode="&#x2003;" horiz-adv-x="1860" />
<glyph unicode="&#x2004;" horiz-adv-x="620" />
<glyph unicode="&#x2005;" horiz-adv-x="465" />
<glyph unicode="&#x2006;" horiz-adv-x="310" />
<glyph unicode="&#x2007;" horiz-adv-x="310" />
<glyph unicode="&#x2008;" horiz-adv-x="232" />
<glyph unicode="&#x2009;" horiz-adv-x="372" />
<glyph unicode="&#x200a;" horiz-adv-x="103" />
<glyph unicode="&#x2010;" horiz-adv-x="784" d="M98 539v71h557q31 0 31 -30v-72h-557q-31 0 -31 31z" />
<glyph unicode="&#x2011;" horiz-adv-x="784" d="M98 539v71h557q31 0 31 -30v-72h-557q-31 0 -31 31z" />
<glyph unicode="&#x2012;" horiz-adv-x="784" d="M98 539v71h557q31 0 31 -30v-72h-557q-31 0 -31 31z" />
<glyph unicode="&#x2013;" horiz-adv-x="1024" d="M0 594v102h1024v-102h-1024z" />
<glyph unicode="&#x2014;" horiz-adv-x="2048" d="M0 594v102h2048v-102h-2048z" />
<glyph unicode="&#x2018;" horiz-adv-x="407" d="M106 1110q0 35 14.5 73t31.5 72l73 166h51q23 0 23 -20q0 -12 -6 -27l-64 -178q72 -10 72 -88q0 -94 -96 -94q-51 0 -75 21.5t-24 74.5z" />
<glyph unicode="&#x2019;" horiz-adv-x="407" d="M106 1329q0 94 97 94q51 0 74.5 -21.5t23.5 -74.5q0 -35 -14.5 -72.5t-30.5 -72.5l-74 -166h-51q-23 0 -22 20q0 10 6 27l63 178q-72 10 -72 88z" />
<glyph unicode="&#x201a;" horiz-adv-x="407" d="M106 92q0 94 97 94q51 0 74.5 -21.5t23.5 -74.5q0 -35 -14.5 -72.5t-30.5 -72.5l-74 -166h-51q-23 0 -22 20q0 10 6 27l63 178q-72 10 -72 88z" />
<glyph unicode="&#x201c;" horiz-adv-x="700" d="M106 1110q0 35 14.5 73t31.5 72l73 166h51q23 0 23 -20q0 -12 -6 -27l-64 -178q72 -10 72 -88q0 -94 -96 -94q-51 0 -75 21.5t-24 74.5zM399 1110q0 35 14.5 73t31.5 72l73 166h51q23 0 23 -20q0 -12 -6 -27l-64 -178q72 -10 72 -88q0 -94 -96 -94q-51 0 -75 21.5 t-24 74.5z" />
<glyph unicode="&#x201d;" horiz-adv-x="700" d="M106 1329q0 94 97 94q51 0 74.5 -21.5t23.5 -74.5q0 -35 -14.5 -72.5t-30.5 -72.5l-74 -166h-51q-23 0 -22 20q0 10 6 27l63 178q-72 10 -72 88zM399 1329q0 94 97 94q51 0 74.5 -21.5t23.5 -74.5q0 -35 -14.5 -72.5t-30.5 -72.5l-74 -166h-51q-23 0 -22 20q0 10 6 27 l63 178q-72 10 -72 88z" />
<glyph unicode="&#x201e;" horiz-adv-x="700" d="M106 92q0 94 97 94q51 0 74.5 -21.5t23.5 -74.5q0 -35 -14.5 -72.5t-30.5 -72.5l-74 -166h-51q-23 0 -22 20q0 10 6 27l63 178q-72 10 -72 88zM399 92q0 94 97 94q51 0 74.5 -21.5t23.5 -74.5q0 -35 -14.5 -72.5t-30.5 -72.5l-74 -166h-51q-23 0 -22 20q0 10 6 27l63 178 q-72 10 -72 88z" />
<glyph unicode="&#x2022;" horiz-adv-x="815" d="M164 707q0 127 61.5 183t182.5 56t182 -56t61 -183t-61.5 -183.5t-181.5 -56.5q-121 0 -182.5 56.5t-61.5 183.5z" />
<glyph unicode="&#x2026;" horiz-adv-x="1370" d="M131 86q0 53 23.5 74.5t72.5 21.5q51 0 75 -21.5t24 -74.5t-23.5 -73.5t-75.5 -20.5q-53 0 -74.5 20.5t-21.5 73.5zM588 86q0 53 23.5 74.5t72.5 21.5q51 0 75 -21.5t24 -74.5t-23.5 -73.5t-75.5 -20.5q-53 0 -74.5 20.5t-21.5 73.5zM1044 86q0 53 23.5 74.5t72.5 21.5 q51 0 75 -21.5t24 -74.5t-23.5 -73.5t-75.5 -20.5q-53 0 -74.5 20.5t-21.5 73.5z" />
<glyph unicode="&#x202f;" horiz-adv-x="372" />
<glyph unicode="&#x2039;" horiz-adv-x="477" d="M92 530l189 383h77q14 0 21.5 -12t-2.5 -33l-166 -338l178 -383h-84q-14 0 -26.5 5.5t-18.5 19.5z" />
<glyph unicode="&#x203a;" horiz-adv-x="477" d="M88 913h84q14 0 26.5 -5t18.5 -19l168 -359l-188 -383h-78q-14 0 -21.5 12.5t2.5 33.5l166 337z" />
<glyph unicode="&#x205f;" horiz-adv-x="465" />
<glyph unicode="&#x20ac;" d="M88 528v62h143q-2 27 -2 54.5v55.5v61t2 58h-112q-31 0 -31 31v61h152q27 264 144.5 386t346.5 122q70 0 148.5 -10t126.5 -27q29 -10 28 -43v-59q-57 10 -137 20.5t-158 10.5q-88 0 -154.5 -20.5t-112.5 -67.5t-73.5 -124t-40.5 -188h430q31 0 31 -30v-62h-467 q-2 -27 -2 -53.5v-54.5v-63t2 -58h436q31 0 31 -31v-61h-459q14 -127 48 -207t83.5 -124t114 -60.5t142.5 -16.5q100 0 165.5 14.5t98.5 14.5q35 0 35 -33v-55q-51 -18 -133.5 -33.5t-176.5 -15.5q-121 0 -209 32.5t-148.5 97t-94 162t-45.5 224.5h-121q-31 0 -31 30z" />
<glyph unicode="&#x2122;" horiz-adv-x="1476" d="M47 1362v57h541q27 0 26 -26v-58h-237v-680h-64q-27 0 -26 27v653h-213q-27 0 -27 27zM680 682q4 174 12 356.5t19 380.5h92q23 0 33 -26l190 -439l207 465h74q27 0 26 -26q25 -379 31 -738h-59q-27 0 -27 27q-4 141 -11 302t-12 308l-196 -450h-49q-25 0 -33 24 l-184 426q-4 -152 -12.5 -318.5t-10.5 -318.5h-63q-27 0 -27 27z" />
<glyph unicode="&#x25fc;" horiz-adv-x="1034" d="M0 0v1034h1034v-1034h-1034z" />
</font>
</defs>
</svg>
